<?xml version="1.0" encoding="UTF-8" standalone="no"?>
<svg
   xmlns:dc="http://purl.org/dc/elements/1.1/"
   xmlns:cc="http://creativecommons.org/ns#"
   xmlns:rdf="http://www.w3.org/1999/02/22-rdf-syntax-ns#"
   xmlns:svg="http://www.w3.org/2000/svg"
   xmlns="http://www.w3.org/2000/svg"
   xmlns:sodipodi="http://sodipodi.sourceforge.net/DTD/sodipodi-0.dtd"
   xmlns:inkscape="http://www.inkscape.org/namespaces/inkscape"
   version="1.1"
   id="svg2"
   xml:space="preserve"
   width="401.37332"
   height="79.400002"
   viewBox="0 0 401.37332 79.400002"
   sodipodi:docname="BCArtsCouncil_CMYK_pos black.eps"><metadata
     id="metadata8"><rdf:RDF><cc:Work
         rdf:about=""><dc:format>image/svg+xml</dc:format><dc:type
           rdf:resource="http://purl.org/dc/dcmitype/StillImage" /></cc:Work></rdf:RDF></metadata><defs
     id="defs6" /><sodipodi:namedview
     pagecolor="#ffffff"
     bordercolor="#666666"
     borderopacity="1"
     objecttolerance="10"
     gridtolerance="10"
     guidetolerance="10"
     inkscape:pageopacity="0"
     inkscape:pageshadow="2"
     inkscape:window-width="640"
     inkscape:window-height="480"
     id="namedview4" /><g
     id="g10"
     inkscape:groupmode="layer"
     inkscape:label="ink_ext_XXXXXX"
     transform="matrix(1.3333333,0,0,-1.3333333,0,79.4)"><g
       id="g12"
       transform="scale(0.1)"><path
         d="m 209.336,430.906 3.961,10.266 C 358.391,353.035 517.309,198.289 524.863,27.2969 h -104.8 C 420.043,194.395 362.289,316.875 209.336,430.906 v 0"
         style="fill:#85816A;fill-opacity:1;fill-rule:nonzero;stroke:none"
         id="path14" /><path
         d="m 546.73,27.7227 10.579,-0.0391 C 593.418,203.953 491.449,465.422 256.559,595.469 L 204.16,504.707 C 394.996,406.602 553.52,179.426 546.73,27.7227 v 0"
         style="fill:#85816A;fill-opacity:1;fill-rule:nonzero;stroke:none"
         id="path16" /><path
         d="m 523.184,249.063 6.91,-8.555 C 381.223,158.914 167.75,98.6602 15.8945,177.605 l 52.3868,90.774 C 213.004,184.836 347.941,173.613 523.184,249.063 v 0"
         style="fill:#85816A;fill-opacity:1;fill-rule:nonzero;stroke:none"
         id="path18" /><path
         d="M 5.33594,158.457 0,149.316 C 134.605,29.9219 412.023,-12.5195 642.09,125.891 L 589.684,216.66 C 409.309,100.43 133.301,76.7461 5.33594,158.457 v 0"
         style="fill:#85816A;fill-opacity:1;fill-rule:nonzero;stroke:none"
         id="path20" /><path
         d="m 182.973,68.4297 -10.879,-1.7109 c 3.785,169.7072 58.34,384.7152 202.636,476.7502 l 52.418,-90.754 C 282.438,369.16 205.258,257.91 182.973,68.4297 v 0"
         style="fill:#85816A;fill-opacity:1;fill-rule:nonzero;stroke:none"
         id="path22" /><path
         d="m 363.422,562.188 -5.238,9.179 C 187.461,514.512 12.0234,295.477 16.8359,27.0313 H 121.641 C 111.191,241.348 228.668,492.227 363.422,562.188 v 0"
         style="fill:#85816A;fill-opacity:1;fill-rule:nonzero;stroke:none"
         id="path24" /><path
         d="m 2417.58,210.156 c 0.04,-17.058 0,-16.203 -19.96,-18.418 v -5.468 h 113.96 l 4.4,23.886 h -9.52 c -5.76,-12.179 -11.13,-17.148 -36.66,-17.148 -20.66,0 -29.72,1.472 -29.72,16.211 v 0.937 z m -81,0 c 0.04,-17.058 0,-16.203 -19.96,-18.418 v -5.468 h 62.44 v 5.468 c -19.98,2.215 -20,1.36 -19.98,18.399 z m -172.75,0 c 16.87,-18.742 44.14,-26.418 73.14,-26.418 20.2,0 36.45,3.575 45.28,6.321 6.5,1.894 10.66,2.746 10.66,7.363 l 3.38,12.734 h -10.57 c -8.71,-10.769 -22.38,-19.054 -44.57,-19.054 -23.04,0 -39.9,7.003 -51.07,19.027 z m -83.24,0 c 7.44,-8.027 14.85,-15.996 22.21,-23.886 h 7.89 v 23.894 z m -100.88,0 c -0.32,-2.5 -0.78,-4.695 -1.1,-6.828 -1.15,-7.586 -8.81,-10.523 -19.96,-11.59 v -5.468 h 56.89 v 5.468 c -15.34,1.067 -23.23,4.004 -24.39,11.59 -0.29,2.133 -0.76,4.328 -1.07,6.801 z m -176.88,0 c 8.56,-16.953 26.24,-26.418 58.11,-26.418 20.15,0 41.15,7.629 52.71,26.399 l -13.16,0.019 c -8.11,-10.722 -21,-16.523 -38.38,-16.523 -18.24,0 -29.32,6.269 -35.72,16.523 z m -193.23,0 c 14.35,-16.152 36.14,-26.418 61,-26.418 27.24,0 50.38,10.235 66.06,26.465 l -18.65,-0.047 c -8.57,-11.191 -21.7,-19.054 -41.15,-19.054 -14.83,0 -29.38,6.418 -40.28,19.062 z m -184.16,0 c 18.77,-18.972 47.26,-26.789 77.42,-26.789 22.29,0 40.23,4.121 49.95,7.258 7.19,2.18 11.8,3.145 11.8,8.477 l 2.81,11.054 h -13.82 c -9.65,-10.617 -24.09,-18.308 -46.13,-18.308 -23.22,0 -40.72,6.668 -52.98,18.316 z m -208.21,0 v -16.718 c 0,-1.7 0.69,-2.532 1.62,-2.961 12.07,-4.207 24.84,-6.739 39.69,-6.739 22.79,0 45.87,9.297 53.54,26.391 l -22.7,0.027 c -3.66,-11.347 -15.18,-19.054 -28.75,-19.054 -13.87,0 -27.19,5.597 -33.65,19.027 z m -91.44,0 c 0.03,-17.058 0.02,-16.203 -19.97,-18.418 v -5.468 h 62.45 v 5.468 c -19.98,2.215 -20.01,1.36 -19.97,18.399 z m -106.94,0 c 9.47,-15.676 15.42,-23.886 23.61,-23.886 h 23.91 v 2.746 c -5.69,3.093 -13.79,11.257 -22.11,21.168 z m -69.928,0 c 0.031,-17.058 0.016,-16.203 -19.969,-18.418 v -5.468 h 62.445 v 5.468 c -19.98,2.215 -20,1.36 -19.968,18.399 z m -78.574,0 c 3.597,-10.105 1.648,-17.59 -13.965,-17.59 v -6.296 h 59.707 v 6.296 c -9.969,0 -14.277,6.34 -19.18,17.59 z m -101.227,0 c -0.984,-2.097 -1.887,-3.945 -2.68,-5.488 -4.101,-7.98 -11.535,-12.102 -18.457,-12.102 v -6.296 h 46.641 v 6.296 c -11.27,0 -16.145,7.993 -12.809,17.434 l 0.055,0.156 h -12.75 v 0"
         style="fill:#231f20;fill-opacity:1;fill-rule:evenodd;stroke:none"
         id="path26" /><path
         d="m 2515.98,210.156 2.57,14.004 h -5.8 c -2.59,-5.437 -4.45,-10.078 -6.29,-13.957 z m -219.69,0 3.59,13.594 h -6.03 c -2.09,-4.668 -4.73,-9.309 -8.13,-13.547 z m -728.87,0 4.88,19.219 h -6.67 c -2.89,-6.77 -6.74,-13.43 -12.03,-19.219 z m -340.44,0 c -1.86,3.848 -3.14,8.367 -3.71,13.594 h -6.04 v -13.594 z m 1190.6,26.797 V 212.59 c 0,-0.863 0,-1.66 0,-2.453 l 22.5,0.019 v 26.797 z m -81,0 V 212.59 c 0,-0.863 0,-1.66 0,-2.453 l 22.5,0.019 c 0,0.774 0,1.571 0,2.434 v 24.363 z m -187.13,0 c 2.93,-10.723 7.89,-19.59 14.38,-26.797 h 26.25 c -6.76,7.227 -11.46,16.297 -14.2,26.797 z m -93.82,0 c 8.35,-8.957 16.67,-17.91 24.96,-26.797 h 30.1 v 26.797 h -9.73 v -18.262 h -0.47 c -5.53,6.082 -11.1,12.188 -16.67,18.313 z m -75.61,0 v -22.258 c 0,-1.629 -0.13,-3.14 -0.31,-4.566 l 10.37,0.027 c -0.19,1.399 -0.31,2.91 -0.31,4.539 v 22.258 z m -69.9,0 c -1.17,-10.801 -4.42,-19.812 -9.63,-26.769 l 13.16,-0.028 c 4.46,7.207 7.52,16.074 8.62,26.797 z m -113.69,0 c 0.6,-10.32 2.61,-19.308 6.4,-26.824 l 23.58,0.027 c -4.52,7.227 -6.7,16.453 -7.43,26.848 z m -66.6,0 c -2.12,-9.519 -5.86,-18.957 -11.82,-26.769 l 18.65,-0.028 c 7.44,7.754 13.22,16.809 16.96,26.778 z m -135.18,0 c 2.98,-9.973 8.12,-19.031 14.95,-26.75 l 26.98,-0.047 c -6.05,7.024 -10.97,15.965 -14.2,26.778 z m -186.07,0 c 3.9,-10.664 9.66,-19.551 16.86,-26.816 l 29.05,0.019 c -7.57,7.207 -13.13,16.27 -16.82,26.824 z m -125.5,0 c 5.66,-6.66 7.5,-12.59 7.5,-19.094 0,-2.722 -0.43,-5.32 -1.2,-7.73 l 22.7,0.027 c 1.7,3.789 2.64,7.981 2.64,12.539 0,5.243 -0.71,9.864 -2.37,14.231 z m -157.29,0 V 212.59 c 0,-0.863 0,-1.66 0,-2.453 l 22.51,0.019 c 0,0.774 0,1.571 0,2.434 v 24.363 z m -123.16,0 c 6.57,-10.508 11.78,-19.465 16.21,-26.797 h 25.42 c -3.55,4.246 -7.15,8.778 -10.62,13.379 l -9.73,13.418 z m -53.708,0 V 212.59 c 0,-0.863 0,-1.66 0,-2.453 l 22.508,0.019 c 0,0.774 0,1.571 0,2.434 v 24.363 z m -88.043,0 9.082,-25.754 c 0.137,-0.34 0.266,-0.691 0.387,-1.035 l 26.562,-0.008 c -0.519,1.184 -1.043,2.422 -1.578,3.711 -2.059,5.098 -5.094,13.145 -8.75,23.113 z m -80.258,0 c -4.484,-10.93 -8.426,-20.176 -11.5,-26.769 l 12.75,-0.028 9.734,26.797 h -10.984 v 0"
         style="fill:#231f20;fill-opacity:1;fill-rule:evenodd;stroke:none"
         id="path28" /><path
         d="m 2417.58,263.75 v -26.797 h 22.5 v 26.797 z m -81,0 v -26.797 h 22.5 v 26.797 z m -190.04,0 c -0.07,-0.996 -0.09,-1.973 -0.09,-2.941 0,-8.829 1.05,-16.766 3,-23.883 l 26.43,0.027 c -2.05,7.793 -3.03,16.367 -2.97,25.535 0.01,0.41 0.01,0.852 0.02,1.262 z m -45.58,0 v -26.797 h 9.73 v 26.797 z m -70.22,0 c 8.32,-8.906 16.62,-17.844 24.89,-26.746 l 28.19,-0.051 c -8.12,8.938 -16.29,17.844 -24.47,26.77 z m -50.72,0 v -26.797 h 9.75 v 26.797 z m -69.39,0 v -17.062 c 0,-3.368 -0.18,-6.61 -0.51,-9.684 l 12.15,-0.051 c 0.29,2.832 0.43,5.813 0.43,8.906 v 17.891 z m -114.44,0 v -19.152 c 0,-2.633 0.08,-5.196 0.24,-7.672 l 22.55,0.027 c -0.19,2.852 -0.28,5.731 -0.28,8.692 v 18.105 z m -64.22,0 c 0.1,-1.816 0.12,-3.73 0.12,-5.684 0,-6.66 -0.65,-13.906 -2.26,-21.093 l 23.79,-0.02 c 3.15,8.352 4.86,17.383 4.95,26.77 z m -140.02,0 c -0.18,-2.129 -0.27,-4.316 -0.27,-6.531 0,-7.043 1.02,-13.86 2.97,-20.293 l 27.73,0.027 c -2.38,7.918 -3.84,16.875 -4.18,26.824 z m -188.76,0 c 0.65,-9.973 2.51,-18.859 5.39,-26.746 l 29.09,-0.051 c -2.84,8.137 -4.56,17.141 -5.23,26.817 z m -155.97,0 c 0.14,-0.051 0.27,-0.117 0.42,-0.215 18.26,-10.93 29.18,-19.199 35.44,-26.562 l 29.27,-0.02 c -3.43,9.043 -10.95,16.981 -24.7,26.817 z m -121.43,0 v -26.797 h 22.51 v 26.797 z m -176.868,0 v -26.797 h 22.508 v 14.59 h 21.824 c 3.41,-5.148 6.527,-10.012 9.376,-14.57 l 21.28,-0.02 -13.02,17.949 c 5.83,2.071 11.32,5.039 16.06,8.875 l -18.33,-0.027 c -4.55,-3.605 -10.495,-5.469 -17.917,-5.469 H 971.43 v 5.469 z m -157.5,0 c -3.817,-9.602 -7.461,-18.66 -10.801,-26.797 h 10.984 l 1.993,5.488 h 65.347 l 1.934,-5.488 h 25.703 c -2.898,7.938 -6.191,17.031 -9.707,26.817 l -25.437,-0.02 4.171,-12.109 h -58.164 l 4.696,12.109 h -10.719 v 0"
         style="fill:#231f20;fill-opacity:1;fill-rule:evenodd;stroke:none"
         id="path30" /><path
         d="M 2417.58,290.547 V 263.75 h 22.5 v 26.797 z m -81,0 V 263.75 h 22.5 v 26.797 z m -182.32,0 c -4.69,-8.914 -7.25,-18.164 -7.72,-26.809 l 26.39,0.012 c 0.18,9.668 1.72,18.691 4.65,26.758 z m -53.3,0 V 263.75 h 9.73 v 26.797 z m -95.07,0 c 8.27,-8.938 16.57,-17.844 24.85,-26.77 l 28.61,-0.027 c -8.24,8.926 -16.46,17.883 -24.67,26.824 z m -25.87,0 V 263.75 h 9.75 v 26.797 z m -69.39,0 V 263.75 h 12.07 v 26.797 z m -114.44,0 V 263.75 h 22.51 v 26.797 z m -69.28,0 c 2.78,-7.637 4.57,-16.531 5.06,-26.77 l 26.6,-0.027 c 0,0.184 0,0.422 0,0.637 0,8.535 -2.03,17.547 -5.93,26.187 z m -127.53,0 c -4.05,-8.184 -6.63,-17.168 -7.43,-26.77 l 26.25,-0.027 c -0.05,1.484 -0.06,2.949 -0.06,4.426 0,7.437 1.1,15.094 3.4,22.39 z m -193.87,0 c -1.73,-6.32 -2.59,-12.609 -2.59,-18.567 0,-2.82 0.09,-5.574 0.27,-8.242 l 29.25,0.012 c -0.22,3.309 -0.33,6.711 -0.31,10.176 0.04,5.762 0.47,11.316 1.31,16.648 z m -184.36,0 c 4.23,-14.16 16.04,-20.711 26.07,-26.746 l 40.43,-0.051 c -1.71,1.25 -3.52,2.5 -5.43,3.789 -13.49,9.172 -24.62,15.996 -31.59,23.008 z m -95.36,0 V 263.75 h 22.51 v 26.797 z m -105.79,0 c -0.81,-12.293 -4.5,-21.477 -11.38,-26.848 l 18.33,0.051 c 8.1,6.563 14.05,15.598 15.86,26.797 z m -71.078,0 V 263.75 h 22.508 v 26.797 z m -106.738,0 9.254,-26.797 h 25.437 c -3.059,8.535 -6.289,17.59 -9.574,26.816 z m -40.207,0 c -3.594,-9.168 -7.141,-18.195 -10.555,-26.797 h 10.719 l 10.382,26.797 h -10.546 v 0"
         style="fill:#231f20;fill-opacity:1;fill-rule:evenodd;stroke:none"
         id="path32" /><path
         d="m 2415.61,324.055 c 2.18,-2.551 1.97,-7.18 1.97,-16.711 v -16.797 h 22.5 v 16.797 c 0,9.531 -0.22,14.16 1.97,16.687 z m -81,0 c 2.19,-2.551 1.97,-7.18 1.97,-16.711 v -16.797 h 22.5 v 16.797 c 0,9.531 -0.21,14.16 1.97,16.687 z m -69.49,0 c 15.52,-6.535 21.29,-18.821 21.76,-30.414 h 6.03 v 27.168 c 0,1.132 -0.27,2.199 -0.88,3.195 z m -77.23,0 c -15.69,-8.508 -26.87,-20.637 -33.63,-33.52 l 23.32,0.012 c 5.58,15.383 16.25,27.305 32.22,33.516 z m -93.62,0 c 3.05,-1.789 4.79,-4.192 5.28,-7.446 0.47,-3.379 1.41,-6.953 1.41,-11.375 v -14.687 h 9.73 v 14.687 c 0,4.422 0.93,7.996 1.4,11.375 0.5,3.254 2.25,5.657 4.92,7.414 z m -125.48,0 c 4.39,-2.66 7.9,-6.313 11.23,-10.188 v -23.32 h 9.75 v 17.219 c 5.37,-5.735 10.73,-11.496 16.12,-17.258 l 28.79,0.039 c -10.25,11.199 -20.47,22.363 -30.6,33.476 z m -64.48,0 c 2.68,-1.789 4.42,-4.192 4.93,-7.446 0.46,-3.379 1.39,-6.953 1.39,-11.375 v -14.687 h 12.07 v 14.687 c 0,4.422 0.91,7.996 1.39,11.375 0.5,3.254 2.19,5.657 4.86,7.414 z m -110.07,0 c 2.17,-2.551 1.95,-7.18 1.95,-16.711 v -16.797 h 22.51 v 16.797 c 0,9.531 -0.21,14.16 1.97,16.687 z m -97.44,0 c 12.73,-5.657 23.9,-16.477 30.11,-33.52 l 25.73,0.012 c -5.82,12.949 -15.82,25.039 -29.51,33.535 z m -65.21,0 c -14.02,-7.969 -25.28,-19.524 -32.21,-33.539 l 22.16,0.031 c 4.53,14.226 13.71,26.941 28.46,33.516 z m -76.67,0 c 1.91,-4.668 2.83,-9.543 3.03,-14.309 h 6.66 v 14.309 z m -131.45,0 c -8.87,-10.344 -14.83,-22.016 -17.96,-33.489 l 27.93,-0.019 c 2,12.844 6.33,24.226 13.04,33.555 z m -137.79,0 c 6.98,-4.844 10.73,-12.746 11.86,-21.758 h 6.03 v 21.758 z m -54.36,0 c -7.29,-5.891 -11.77,-13.442 -11.77,-21.758 0,-4.445 0.58,-8.324 1.6,-11.762 l 29.48,0.012 c -5.01,5.039 -7.87,10.207 -7.87,16.367 0,8.074 3.24,13.652 8.22,17.149 z m -47.7,0 c 8.81,-4.258 12.7,-12.871 18.07,-22.61 h 5.8 l -4.39,22.61 z m -57.83,0 v -33.508 h 22.51 v 33.508 z m -54.79,0 -4.4,-22.61 h 5.8 c 5.37,9.739 9.25,18.352 18.06,22.618 z m -66.38,0 c 9.27,-3.996 15.56,-12.668 15.56,-28.098 0,-1.848 -0.06,-3.652 -0.18,-5.391 l 22.81,-0.019 c 0.38,2.344 0.58,4.773 0.58,7.324 0,11.66 -5.26,20.313 -13.28,26.184 z m -57.667,0 c 2.184,-2.551 1.969,-7.18 1.969,-16.711 v -16.797 h 22.508 v 33.508 z m -116.332,0 11.563,-33.508 h 25.117 c -3.961,11.133 -8,22.5 -11.918,33.535 z m -15.523,0 c -4.321,-11.02 -8.754,-22.367 -13.121,-33.52 l 10.546,0.012 12.985,33.508 h -10.41 v 0"
         style="fill:#231f20;fill-opacity:1;fill-rule:evenodd;stroke:none"
         id="path34" /><path
         d="m 2442.05,324.055 c 2.31,2.633 7.29,2.937 18.01,4.129 v 5.468 h -62.44 v -5.468 c 10.72,-1.192 15.68,-1.496 17.99,-4.153 z m -81,0 c 2.31,2.633 7.29,2.937 18.01,4.129 v 5.468 h -62.44 v -5.468 c 10.72,-1.192 15.68,-1.496 17.99,-4.153 z m -151.25,0 c 7.9,3.093 17.11,4.754 27.64,4.754 11.52,0 20.63,-1.789 27.68,-4.754 h 26.91 c -1.23,1.968 -3.83,3.711 -8.16,4.976 -11.39,3.36 -22.05,7.153 -44.55,7.153 -20.63,0 -37.76,-4.668 -51.43,-12.121 z m -92.79,0 c 3.58,2.312 8.81,3.523 15.04,4.129 v 5.468 h -56.85 v -5.468 c 8.73,-0.606 15.04,-1.817 19.07,-4.161 z m -112.93,0 c -2.93,3.179 -5.84,6.394 -8.75,9.597 h -42.23 v -5.468 c 6.45,0 11.47,-1.602 15.69,-4.153 z m -75.13,0 c 3.53,2.312 8.75,3.523 15.09,4.129 v 5.468 h -54.77 v -5.468 c 6.22,-0.606 11.46,-1.817 15.04,-4.161 z m -108.28,0 c 2.3,2.633 7.28,2.937 18,4.129 v 5.468 h -62.44 v -5.468 c 10.71,-1.192 15.68,-1.496 18.01,-4.153 z m -170.67,0 c 6.76,3.035 14.68,4.754 23.85,4.754 7.73,0 15.6,-1.524 22.95,-4.778 l 26.33,0.024 c -12.01,7.468 -26.84,12.129 -44.18,12.129 -17.48,0 -33.72,-4.375 -47.36,-12.129 z m -399.02,0 c 4.65,3.297 10.82,4.754 17.32,4.754 7.2,0 12.94,-1.77 17.38,-4.805 l 17.89,0.051 v 5.808 c 0,1.067 -0.22,1.895 -1.62,2.325 -9.28,2.941 -22.52,3.996 -32.5,3.996 -14.96,0 -28.83,-4.692 -38.13,-12.161 z m -160.52,0 c 3.75,1.836 8.4,2.859 14.44,2.859 h 20.89 v -2.859 h 22.51 v 2.859 h 20.89 c 6.04,0 10.68,-1.023 14.43,-2.851 l 19.48,-0.008 -1.87,9.597 h -128.37 l -1.86,-9.597 z m -119.03,0 v 2.859 h 17.879 c 5.558,0 10.791,-0.859 15.311,-2.812 l 25.49,-0.047 c -8.93,6.511 -21.27,9.597 -33.606,9.597 h -67.551 v -5.468 c 10.727,-1.192 15.695,-1.496 18,-4.153 z m 516.27,33.484 c -28.81,-3.887 -50.17,-17.031 -64.23,-33.484 h 23.01 c 11.65,16.218 30.51,26.129 56.89,26.129 30.73,0 45.71,-11.969 51.55,-26.18 l 9.69,0.051 v 16.929 c 0,3.868 -2.82,7.258 -10,9.446 -8.62,2.668 -16.89,5.547 -29.3,7.109 z m -659.442,0 c -4.137,-10.422 -8.59,-21.777 -13.16,-33.457 l 10.41,-0.027 2.433,6.289 h 0.512 l 2.168,-6.289 h 24.762 c -4.184,11.785 -8.235,23.172 -11.906,33.433 l -15.219,0.051 v 0"
         style="fill:#231f20;fill-opacity:1;fill-rule:evenodd;stroke:none"
         id="path36" /><path
         d="m 1525.31,357.539 c -5.63,0.691 -12.13,1.121 -19.89,1.121 -6.2,0 -12.1,-0.398 -17.72,-1.148 z m -681.833,0 c -0.149,0.352 -0.278,0.742 -0.418,1.121 h -14.352 c -0.148,-0.379 -0.301,-0.75 -0.449,-1.14 l 15.219,0.019 v 0"
         style="fill:#231f20;fill-opacity:1;fill-rule:evenodd;stroke:none"
         id="path38" /><path
         d="m 2956.21,418.594 v -2.805 h 54.08 v 2.805 z m -98.18,0 v -2.805 h 42.24 v 2.805 z m -74.98,0 v -2.805 h 62.44 v 2.805 z m -143.23,0 v -2.805 h 64.3 c 9.14,0 17.6,0.899 25.1,2.785 z m -81.48,0 v -2.805 h 62.44 v 2.805 z m -49.57,0 2.23,-4.074 h 3.71 l 2.2,4.074 z m -92.01,0 v -2.805 h 52.22 v 2.805 z m -133.75,0 c 8.98,-3.489 20.31,-5.332 34.41,-5.332 9.36,0 18.89,1.648 27.58,5.285 z m -180.79,0 v -2.805 h 113.97 l 0.53,2.805 z m -138.32,0 c 9.19,-3.457 19.26,-5.332 29.91,-5.332 11.7,0 22.64,1.875 32.54,5.312 z m -178.92,0 c 12.75,-3.938 26.72,-5.711 41.09,-5.711 18.81,0 34.52,2.926 44.81,5.73 l -85.9,-0.019 v 0"
         style="fill:#231f20;fill-opacity:1;fill-rule:evenodd;stroke:none"
         id="path40" /><path
         d="m 2963.14,452.09 5.36,-14.617 c 3.71,-9.258 2.32,-16.203 -12.29,-16.203 v -2.676 h 54.08 v 2.676 c -9.98,0 -13.69,6.726 -18.81,18.515 -1.25,3.008 -2.93,7.195 -4.9,12.274 z m -78.94,0 c -3.87,-8.914 -7.15,-15.977 -9.47,-20.305 -3.71,-6.941 -10.45,-10.515 -16.7,-10.515 v -2.676 h 42.24 v 2.676 c -10.23,0 -14.63,6.945 -11.62,15.144 l 5.94,15.676 z m -81.17,0 v -9.992 c 0,-19.578 0.92,-18.524 -19.98,-20.828 v -2.676 h 62.44 v 2.676 c -20.88,2.304 -19.94,1.25 -19.94,20.828 v 9.992 z m -143.25,0 v -9.992 c 0,-19.578 0.94,-18.524 -19.96,-20.828 v -2.676 h 89.4 c 18.63,4.676 31.33,15.449 33.51,33.535 l -26.17,-0.039 c -0.9,-19.055 -10.9,-29.57 -30.8,-29.57 -19.28,0 -23.46,5.261 -23.46,23.796 v 5.774 z m -81.48,0 v -9.992 c 0,-19.578 0.94,-18.524 -19.96,-20.828 v -2.676 h 62.44 v 2.676 c -20.9,2.304 -19.96,1.25 -19.96,20.828 v 9.992 z m -87.79,0 18.26,-33.496 h 8.14 l 18.25,33.496 h -11.82 l -3.77,-6.613 -3.63,6.613 z m -52.4,0 v -7.879 c 0,-4.426 -0.94,-8 -1.39,-11.367 -1.17,-7.59 -9.06,-10.531 -19.96,-11.574 v -2.676 h 52.22 v 2.676 c -10.91,1.043 -18.8,3.984 -19.98,11.574 -0.45,3.367 -1.15,6.941 -1.15,11.367 v 7.879 z m -183.23,0 c 3.67,-15.762 12.25,-27.227 28.13,-33.457 l 61.99,-0.039 c 13.71,5.703 25.33,16.426 30.8,33.523 l -12.34,-0.027 c -6.53,-18.621 -21.68,-28.938 -44.89,-28.938 -24.76,0 -36.32,11.555 -40.87,28.926 z m -132.69,0 v -9.992 c 0,-19.578 0.92,-18.524 -19.97,-20.828 v -2.676 h 114.5 l 6.15,33.496 h -6.27 c -9.86,-21.36 -9.35,-29.57 -42.19,-29.57 -20.66,0 -29.7,1.484 -29.7,16.21 v 13.36 z m -198.19,0 c 8.56,-15.156 22.62,-27.078 39.9,-33.516 l 62.45,0.02 c 18.62,6.433 33.65,18.347 43.32,33.535 l -21.25,-0.039 c -7.58,-17.371 -22.31,-31.453 -48.34,-31.453 -19.06,0 -37.66,10.562 -48.65,31.402 z m -185.18,0 c 10.57,-16.875 26.94,-27.637 46.16,-33.527 l 85.9,0.031 c 1.91,0.547 3.63,1.054 5.16,1.551 7.16,2.191 11.77,3.144 11.77,8.468 l 5.97,23.477 h -8.21 c -8.97,-16.465 -24.88,-30.735 -54.9,-30.735 -30.49,0 -51.12,11.528 -62.97,30.715 l -28.88,0.02 v 0"
         style="fill:#231f20;fill-opacity:1;fill-rule:evenodd;stroke:none"
         id="path42" /><path
         d="m 2222.87,452.09 0.29,1.601 h -5.8 c -0.25,-0.554 -0.52,-1.101 -0.76,-1.64 z m -329.09,0 1.73,6.797 h -6.66 c -0.99,-2.293 -2.07,-4.571 -3.28,-6.797 z m 1007.31,40.183 c -6.17,-15.078 -12.01,-29.082 -16.89,-40.222 l 10.39,0.039 4.75,12.539 h 59.19 l 4.61,-12.539 h 23.44 c -4.06,10.41 -9.41,24.648 -15.23,40.234 l -22.89,-0.051 7.05,-19.636 h -52.7 l 7.93,19.648 z m -98.06,0 V 452.09 h 22.52 v 40.183 z m -143.25,0 V 452.09 h 22.52 v 37.39 h 14.85 c 21.83,0 39.47,-9.058 39.47,-34.531 0,-0.984 -0.02,-1.941 -0.06,-2.871 l 26.17,0.012 c 0.24,1.875 0.36,3.801 0.36,5.808 0,16.692 -11.27,29.075 -27.39,34.399 z m -81.48,0 V 452.09 h 22.52 v 40.183 z m -32.13,0 -22.83,-40.183 h 11.82 l 21.85,40.183 z m -77.58,0 21.92,-40.183 h 25.43 l -22.11,40.183 z m -30.48,0 V 452.09 h 9.74 v 40.195 z m -71.02,0 v -16.062 c 0,-9.113 -1.21,-17.18 -3.63,-24.102 l 12.34,-0.019 c 2.17,6.758 3.36,14.48 3.36,23.269 v 16.914 z m -114.43,0 v -18.164 c 0,-8.054 0.68,-15.41 2.22,-22.019 h 22.82 c -1.82,6.883 -2.52,14.695 -2.52,23.074 v 17.109 z m -130.47,0 V 452.09 h 22.52 v 40.183 z m -66.96,0 c 0.06,-1.55 0.1,-3.101 0.1,-4.683 0,-11.211 -1.91,-24.067 -6.91,-35.492 l 21.25,-0.008 c 7.5,11.797 11.79,25.508 12.1,40.168 z m -140.15,0 c -0.12,-1.824 -0.19,-3.671 -0.19,-5.535 0,-12.578 3.27,-24.375 9.11,-34.679 l 27.43,0.031 c -5.67,10.676 -9.3,24.109 -9.97,40.223 z m -188.61,0 c 1.19,-16.121 5.56,-29.421 12.35,-40.222 l 28.88,0.039 c -6.88,11.074 -10.79,24.746 -11.98,40.215 l -29.25,-0.032 v 0"
         style="fill:#231f20;fill-opacity:1;fill-rule:evenodd;stroke:none"
         id="path44" /><path
         d="m 2936.41,525.77 12.05,-33.497 h 22.89 c -4.01,10.801 -8.22,22.207 -12.39,33.457 z m -21.61,0 c -4.59,-11.25 -9.23,-22.665 -13.71,-33.543 l 9.65,0.046 13.54,33.497 z m -111.77,0 v -33.485 l 22.52,-0.012 v 33.497 z m -143.25,0 v -33.485 l 75.92,-0.012 c -5.21,1.75 -10.93,2.727 -16.95,2.883 v 0.43 c 16.41,4.324 30.21,15.234 32.93,30.156 l -22.75,0.028 c -0.75,-22.95 -16.08,-29.559 -28.99,-29.559 h -17.64 v 29.559 z m -81.48,0 v -33.485 l 22.52,-0.012 v 33.497 z m -13.12,0 -19.01,-33.497 h 10.84 l 18.24,33.497 z m -114.85,0 18.26,-33.497 h 25.24 l -18.44,33.508 z m -12.22,0 v -33.497 h 9.74 v 33.508 z m -71.02,0 v -33.497 h 12.07 v 33.508 z m -114.43,0 v -33.497 h 22.52 v 33.508 z m -130.47,0 v -33.485 l 22.52,-0.012 v 33.497 z m -74.44,0 c 4.26,-9.059 6.98,-20.172 7.48,-33.512 l 26.54,0.015 c 0,0.532 0.01,1.075 0.01,1.633 0,10.43 -3.03,21.582 -8.81,31.903 z m -122.03,0 c -6,-9.903 -9.76,-21.2 -10.64,-33.485 l 26.38,-0.012 c -0.07,1.797 -0.11,3.586 -0.11,5.411 0,9.414 1.76,19.191 5.53,28.086 z m -195.21,0 c -2.93,-8.231 -4.38,-16.512 -4.38,-24.278 0,-3.172 0.11,-6.238 0.34,-9.195 l 29.25,-0.024 c -0.27,3.645 -0.4,7.368 -0.39,11.157 0.05,7.832 0.84,15.308 2.38,22.312 l -27.2,0.028 v 0"
         style="fill:#231f20;fill-opacity:1;fill-rule:evenodd;stroke:none"
         id="path46" /><path
         d="m 2928.48,559.266 c -4.34,-10.528 -8.97,-21.922 -13.68,-33.485 l 9.48,-0.011 6.15,15.285 h 0.47 l 5.51,-15.285 h 22.55 c -4.31,11.613 -8.57,23.097 -12.44,33.527 z m -145.43,0 v -1.582 c 20.9,-2.313 19.98,-1.258 19.98,-20.836 V 525.77 h 22.52 v 11.078 c 0,19.578 -0.94,18.523 19.94,20.836 v 1.582 z m -143.23,0 v -1.582 c 20.9,-2.313 19.96,-1.258 19.96,-20.836 V 525.77 h 22.52 v 30.656 h 13.25 c 22.28,0 33.41,-8.008 33.41,-28.836 0,-0.61 -0.01,-1.203 -0.03,-1.789 l 22.75,-0.031 c 0.33,1.73 0.49,3.527 0.49,5.39 0,14.863 -7.46,23.598 -21.6,28.078 z m -55.6,0 -19.04,-33.496 h 10.07 l 2.58,4.757 h 0.47 v -4.757 h 22.52 v 10.238 c 0,13.258 6.27,21.676 23.22,21.676 v 1.582 z m -173.28,0 v -1.582 c 11.15,0 22.52,-8.204 27.17,-18.094 v -13.82 h 9.74 v 3.703 h 0.47 l 2.01,-3.703 h 25.06 l -18.44,33.496 z m -65.22,0 v -1.582 c 10.92,-1.043 18.81,-4 19.98,-11.571 0.47,-3.379 1.39,-6.953 1.39,-11.379 v -8.964 h 12.07 v 8.964 c 0,4.426 0.94,8 1.39,11.379 1.17,7.571 8.83,10.528 19.96,11.571 v 1.582 z m -113.02,0 v -1.582 c 20.87,-2.313 19.96,-1.258 19.96,-20.836 V 525.77 h 22.52 v 11.078 c 0,19.578 -0.94,18.523 19.96,20.836 v 1.582 z m -130.48,0 v -1.582 c 20.89,-2.313 19.97,-1.258 19.97,-20.836 V 525.77 h 22.52 v 11.078 c 0,19.578 -0.93,18.523 19.95,20.836 v 1.582 z m -135.31,0 c -17.52,-6.715 -31.99,-18.446 -41.19,-33.536 l 21.16,0.04 c 7.66,18.136 23.69,32.55 50.18,32.55 19.62,0 40.02,-9.804 50.69,-32.566 l 25.22,0.016 c -7.79,13.949 -20.57,26.347 -37.72,33.507 z m -91.74,0 c 3.94,-6.231 5.73,-13.219 5.98,-20.008 h 6.66 v 20.008 z m -123.21,0 c -10.15,-10.047 -17.29,-21.727 -21.45,-33.457 l 27.2,-0.039 c 2.87,13.117 8.38,24.589 16.63,33.539 l -22.38,-0.043 v 0"
         style="fill:#231f20;fill-opacity:1;fill-rule:evenodd;stroke:none"
         id="path48" /><path
         d="m 2946.52,559.266 c -0.82,2.207 -1.62,4.347 -2.38,6.425 h -13.01 c -0.86,-2.105 -1.75,-4.265 -2.65,-6.464 z m -101.03,0 v 3.898 h -62.44 v -3.898 z m -114.92,0 c -8.69,2.746 -19.91,3.898 -33.42,3.898 h -57.33 v -3.898 z m -106.53,0 v 3.898 h -37.59 l -2.23,-3.898 z m -167.09,0 -2.13,3.898 h -43.88 v -3.898 z m -56.44,0 v 3.898 h -54.79 v -3.898 z m -105.37,0 v 3.898 h -62.44 v -3.898 z m -130.48,0 v 3.898 h -62.44 v -3.898 z m -129.41,0 c -9.66,4.054 -20.75,6.425 -33.09,6.425 -12.55,0 -24.46,-2.261 -35.25,-6.406 z m -260.91,0 c 11.77,12.812 29.11,20.422 52.24,20.422 26.47,0 41.27,-8.887 48.59,-20.422 h 12.64 v 11.222 c 0,3.875 -2.79,7.266 -9.98,9.453 -12.56,3.868 -24.35,8.223 -49.2,8.223 -34.18,0 -59.66,-12.141 -76.67,-28.937 l 22.38,0.039 v 0"
         style="fill:#231f20;fill-opacity:1;fill-rule:evenodd;stroke:none"
         id="path50" /><path
         d="m 1602.09,471.367 v -22.394 c 0,-19.586 0.95,-18.535 -19.94,-20.848 v -5.469 h 62.44 v 5.469 c -20.9,2.313 -19.98,1.262 -19.98,20.848 v 22.394 z m -103.98,0 v -22.394 c 0,-19.586 0.93,-18.535 -19.95,-20.848 v -5.469 h 62.43 v 5.469 c -20.89,2.313 -19.96,1.262 -19.96,20.848 v 22.394 z m -68.57,0 c 4.41,-5.906 5.88,-11.301 5.88,-17.129 0,-15.371 -13.46,-26.75 -29.94,-26.75 -17.87,0 -34.82,9.27 -37.37,32.641 h -6.04 v -30.316 c 0,-1.688 0.69,-2.516 1.63,-2.958 12.07,-4.199 24.83,-6.726 39.69,-6.726 27.85,0 56.17,13.894 56.17,38.941 0,4.465 -0.51,8.496 -1.69,12.297 z m -128.5,0 v -22.394 c 0,-19.586 0.92,-18.535 -19.96,-20.848 v -5.469 h 62.44 v 5.469 c -20.9,2.313 -19.97,1.262 -19.97,20.848 v 22.394 z m -111.4,0 v -22.394 c 0,-19.586 0.93,-18.535 -19.96,-20.848 v -5.469 h 62.43 v 5.469 c -20.89,2.313 -19.96,1.262 -19.96,20.848 v 22.394 z m -111.41,0 v -22.394 c 0,-19.586 0.93,-18.535 -19.96,-20.848 v -5.469 h 62.44 v 5.469 c -20.89,2.313 -19.96,1.262 -19.96,20.848 v 22.394 z m -91.476,0 c 19.646,-31.726 26.786,-48.711 38.566,-48.711 h 23.9 v 2.742 c -8.12,4.415 -21.11,19.153 -32.72,34.524 l -8.31,11.445 z m -54.981,0 v -22.394 c 0,-19.586 0.926,-18.535 -19.96,-20.848 v -5.469 h 62.441 v 5.469 c -20.895,2.313 -19.969,1.262 -19.969,20.848 v 22.394 z m -155.082,0 v -18.445 c 0,-22.524 1.02,-21.32 -22.043,-23.977 v -6.289 h 70.981 c 37.672,0 65.09,14.532 65.09,48.418 0,0.11 0,0.215 0,0.321 l -29.317,-0.028 c 0.067,-1.203 0.102,-2.433 0.102,-3.683 0,-23.961 -11.016,-37.286 -34.078,-37.286 -21.27,0 -25.883,6.055 -25.883,27.356 v 13.613 h -24.852 v 0"
         style="fill:#231f20;fill-opacity:1;fill-rule:evenodd;stroke:none"
         id="path52" /><path
         d="m 1498.11,504.863 v -33.496 h 22.52 v 27.293 h 81.46 v -27.293 h 22.52 v 33.496 z m -113.71,0 c 2.71,-1.75 5.46,-3.359 8.08,-4.941 19.96,-11.945 31.15,-20.711 37.06,-28.594 l 28.33,0.039 c -3.43,11.055 -12.49,20.164 -30.81,32.547 -0.45,0.324 -0.91,0.625 -1.37,0.938 z m -83.36,0 v -33.496 h 22.51 v 33.496 z m -111.4,0 v -33.496 h 22.51 v 33.496 z m -111.41,0 v -33.496 h 22.52 v 33.496 z m -146.457,0 v -33.496 h 22.512 v 16.555 h 21.824 c 3.926,-5.918 7.446,-11.449 10.645,-16.594 l 21.436,0.039 -14.444,19.922 c 8.014,2.832 15.374,7.402 21.054,13.524 l -18.722,0.05 c -4.832,-6.633 -12.273,-10.207 -22.523,-10.207 h -19.27 v 10.207 z m -95.406,0 c 13.981,-4.304 23.91,-14.582 25.035,-33.515 l 29.317,0.019 c -0.106,14.453 -7.239,26.043 -18.379,33.457 z m -59.676,0 v -33.496 h 24.852 v 33.496 h -24.852 v 0"
         style="fill:#231f20;fill-opacity:1;fill-rule:evenodd;stroke:none"
         id="path54" /><path
         d="m 1498.11,538.348 v -33.485 h 126.5 v 33.485 h -22.52 v -31.051 h -81.46 v 31.051 z m -133.72,0 c 0.1,-17.938 9.8,-26.805 20.01,-33.465 l 41.29,-0.02 c -19.78,13.367 -34.24,21.785 -37.43,33.446 z m -63.35,0 v -33.485 h 22.51 v 33.485 z m -35.79,0 c 0.1,-0.184 0.19,-0.36 0.29,-0.528 h 5.8 l -0.11,0.528 z m -75.61,0 v -33.485 h 22.51 v 33.485 z m -59.09,0 -0.11,-0.528 h 5.8 c 0.1,0.168 0.2,0.344 0.29,0.52 z m -52.32,0 v -33.485 h 22.52 v 33.485 z m -75.54,0 c 0.22,-1.903 0.35,-3.895 0.35,-6.004 0,-11.719 -2.26,-21.043 -6.962,-27.481 h 18.722 c 6.99,7.489 11.44,17.41 11.44,29.375 0,1.407 -0.07,2.774 -0.22,4.09 z m -70.917,0 v -33.485 h 22.512 v 33.485 z m -155.082,0 v -33.485 h 24.852 v 2.528 h 16.402 c 6.586,0 12.828,-0.782 18.422,-2.508 l 35.973,-0.02 c -8.36,5.535 -18.973,8.762 -30.563,9.063 v 0.488 c 14.075,3.867 26.414,12.305 32.633,23.926 l -22.828,0.008 c -4.504,-17.75 -18.496,-23.211 -30.562,-23.211 h -19.477 v 23.211 h -24.852 v 0"
         style="fill:#231f20;fill-opacity:1;fill-rule:evenodd;stroke:none"
         id="path56" /><path
         d="m 1624.61,538.348 v 5.363 c 0,19.582 -0.92,18.523 19.98,20.848 v 5.468 h -62.44 v -5.468 c 20.89,-2.325 19.94,-1.266 19.94,-20.848 v -5.363 z m -103.98,0 v 5.363 c 0,19.582 -0.93,18.523 19.96,20.848 v 5.468 h -62.43 v -5.468 c 20.88,-2.325 19.95,-1.266 19.95,-20.848 v -5.363 z m -132.37,0 c -0.43,1.562 -0.65,3.215 -0.65,4.945 0,15.574 12.06,21.891 25.53,21.891 18.57,0 27.39,-11.786 29.25,-26.524 h 6.03 v 27.578 c 0,1.059 -0.23,1.899 -1.62,2.317 -9.29,2.949 -22.52,4.004 -32.5,4.004 -26.69,0 -49.91,-14.954 -49.91,-33.899 0,-0.097 0,-0.191 0,-0.281 z m -64.71,0 v 5.363 c 0,19.582 -0.93,18.523 19.97,20.848 v 5.468 h -62.44 v -5.468 c 20.88,-2.325 19.96,-1.266 19.96,-20.848 v -5.363 z m -187.02,0 c 7.5,13.656 12.27,24.945 32.21,24.945 h 20.9 v -24.945 h 22.51 v 24.945 h 20.89 c 19.94,0 24.72,-11.289 32.21,-24.953 l 5.98,0.008 -6.16,31.679 h -128.36 l -6.16,-31.679 z m -35.78,0 v 5.363 c 0,19.582 -0.93,18.523 19.96,20.848 v 5.468 h -62.44 v -5.468 c 20.89,-2.325 19.96,-1.266 19.96,-20.848 v -5.363 z m -146.465,0 v 24.945 h 17.879 c 15.387,0 28.276,-6.594 30.526,-24.984 l 23.33,0.039 c -2.46,21.757 -24.56,31.679 -46.665,31.679 h -67.542 v -5.468 c 20.886,-2.325 19.96,-1.266 19.96,-20.848 v -5.363 z m -152.742,0 v 46.039 h 14.605 c 24.61,0 36.903,-9.203 36.903,-33.176 0,-4.883 -0.528,-9.152 -1.469,-12.883 l 22.828,0.02 c 2.719,5.082 4.266,10.785 4.266,16.972 0,27.61 -21.524,36.809 -60.731,36.809 h -63.297 v -6.289 c 23.063,-2.664 22.043,-1.453 22.043,-23.977 v -23.515 h 24.852 v 0"
         style="fill:#231f20;fill-opacity:1;fill-rule:evenodd;stroke:none"
         id="path58" /><path
         d="m 794.43,64.0938 -7.543,24.3046 c -1.692,5.8477 -2.989,11.6996 -4.16,17.1676 h -0.387 c -1.172,-5.5933 -2.473,-11.5738 -4.035,-17.0308 l -7.41,-24.4414 z m -25.617,-8.586 -8.055,-27.168 h -11.184 l 26.91,87.6292 h 12.871 l 26.782,-87.6292 h -11.442 l -8.316,27.168 h -27.566"
         style="fill:#231f20;fill-opacity:1;fill-rule:nonzero;stroke:none"
         id="path60" /><path
         d="m 827.965,74.4922 c 0,6.7578 -0.262,11.5703 -0.52,16.7695 h 9.621 l 0.649,-9.4961 h 0.265 c 2.989,5.5977 9.618,10.793 18.844,10.793 8.582,0 20.028,-5.5859 20.028,-25.2148 V 28.3398 H 865.93 v 37.5665 c 0,9.3671 -3.121,17.5507 -12.742,17.5507 -6.504,0 -11.833,-4.8047 -13.653,-11.3086 -0.39,-1.4257 -0.648,-3.3789 -0.648,-5.332 V 28.3398 h -10.922 v 46.1524"
         style="fill:#231f20;fill-opacity:1;fill-rule:nonzero;stroke:none"
         id="path62" /><path
         d="m 949.906,60.5859 c -10.273,0.1289 -23.793,-1.6992 -23.793,-14.3086 0,-7.664 4.684,-10.9179 9.75,-10.9179 7.149,0 11.965,4.5508 13.524,10.1367 0.386,1.1758 0.519,2.4727 0.519,3.6445 z m 10.66,-17.4218 c 0,-5.2032 0.125,-10.5352 0.911,-14.8243 h -9.879 l -0.914,7.5391 h -0.391 c -3.246,-4.8047 -9.227,-8.8359 -17.289,-8.8359 -11.309,0 -17.809,8.4453 -17.809,18.0625 0,15.3437 13.129,23.2734 34.45,23.1484 v 1.5586 c 0,6.1055 -1.692,14.5625 -13,14.4258 -5.332,0 -10.665,-1.5547 -14.559,-4.2891 l -2.473,7.5391 c 4.418,2.8633 11.442,5.0703 18.848,5.0703 17.164,0 22.105,-11.6992 22.105,-24.8242 V 43.1641"
         style="fill:#231f20;fill-opacity:1;fill-rule:nonzero;stroke:none"
         id="path64" /><path
         d="m 1015.81,67.3438 c 0,1.8164 -0.13,3.5039 -0.51,4.9414 -1.82,5.9765 -6.37,11.4375 -14.05,11.4375 -9.746,0 -16.379,-9.3594 -16.379,-23.7891 0,-13.5273 5.984,-22.8828 16.379,-22.8828 5.85,0 11.45,3.5078 13.78,10.918 0.65,1.9531 0.78,4.0351 0.78,5.9843 z m 10.92,-30.1641 c 0,-15.207 -2.73,-23.1367 -8.05,-28.33986 -5.46,-5.19921 -13.4,-7.27734 -21.067,-7.27734 -6.89,0 -14.297,1.69141 -18.847,4.55078 l 2.726,8.44532 c 3.641,-2.207 9.492,-4.2852 16.383,-4.2852 10.665,0 18.075,5.711 18.075,21.0547 v 6.8946 h -0.27 c -2.98,-5.5938 -9.22,-9.7539 -17.543,-9.7539 -14.305,0 -24.313,13.1328 -24.313,30.9453 0,21.8359 12.871,33.1445 25.742,33.1445 9.614,0 14.684,-5.3242 17.294,-10.0078 h 0.25 l 0.53,8.7109 h 9.62 c -0.26,-4.414 -0.53,-9.7461 -0.53,-17.9414 V 37.1797"
         style="fill:#231f20;fill-opacity:1;fill-rule:nonzero;stroke:none"
         id="path66" /><path
         d="m 1080.16,66.0469 c 0.13,8.8359 -3.38,18.457 -13.91,18.457 -10.14,0 -14.56,-10.2773 -15.34,-18.457 z m -29.38,-7.9336 c 0.13,-16.6406 9.36,-22.3594 19.5,-22.3594 7.02,0 11.7,1.2969 15.34,2.9844 l 1.82,-7.9297 c -3.77,-1.8164 -10.27,-3.6406 -18.72,-3.6406 -18.07,0 -28.6,12.6172 -28.6,31.7187 0,19.375 10.53,33.6719 27.17,33.6719 18.2,0 23.4,-16.6406 23.4,-28.9844 0,-2.4726 -0.13,-4.1601 -0.39,-5.4609 h -39.52"
         style="fill:#231f20;fill-opacity:1;fill-rule:nonzero;stroke:none"
         id="path68" /><path
         d="m 1104.08,74.4922 c 0,6.7578 -0.26,11.5703 -0.52,16.7695 h 9.62 l 0.65,-9.4961 h 0.26 c 2.99,5.5977 9.62,10.793 18.85,10.793 8.58,0 20.02,-5.5859 20.02,-25.2148 v -39.004 h -10.92 v 37.5665 c 0,9.3671 -3.12,17.5507 -12.74,17.5507 -6.5,0 -11.83,-4.8047 -13.65,-11.3086 -0.39,-1.4257 -0.65,-3.3789 -0.65,-5.332 V 28.3398 h -10.92 v 46.1524"
         style="fill:#231f20;fill-opacity:1;fill-rule:nonzero;stroke:none"
         id="path70" /><path
         d="m 1210.81,30.4219 c -2.73,-1.4297 -8.45,-3.2539 -15.73,-3.2539 -17.29,0 -28.86,12.3515 -28.86,32.1093 0,18.9844 12.09,33.2813 31.2,33.2813 5.72,0 11.05,-1.4258 13.78,-2.9883 l -2.47,-8.4492 c -2.34,1.1758 -6.11,2.6016 -11.44,2.6016 -13.13,0 -19.89,-11.1836 -19.89,-24.0547 0,-14.5625 8.19,-23.5274 19.76,-23.5274 5.33,0 8.97,1.3008 11.96,2.5977 l 1.69,-8.3164"
         style="fill:#231f20;fill-opacity:1;fill-rule:nonzero;stroke:none"
         id="path72" /><path
         d="m 1229.53,91.2617 12.22,-36.9258 c 1.3,-4.2851 2.6,-8.9648 3.51,-12.8632 h 0.39 c 0.91,3.7695 2.21,8.5781 3.5,13.125 l 11.06,36.664 h 11.44 L 1256.57,47.8438 C 1249.68,27.9492 1244.35,15.5977 1236.81,8.05859 1231.48,2.85938 1226.15,0.644531 1223.54,0 l -3.12,9.22656 c 2.87,1.17184 6.51,3.25394 9.76,6.24224 2.86,2.8593 6.11,7.1484 8.32,12.2148 0.52,1.3086 0.91,2.082 0.91,2.8633 0,0.6523 -0.26,1.5625 -0.66,2.7344 l -21.05,57.9804 h 11.83"
         style="fill:#231f20;fill-opacity:1;fill-rule:nonzero;stroke:none"
         id="path74" /><path
         d="m 1330.8,35.3594 c 10.27,0 16.51,11.5742 16.51,24.5742 0,10.3984 -4.29,24.3047 -16.51,24.3047 -12.09,0 -16.65,-13.2617 -16.65,-24.5703 0,-12.7344 6.12,-24.3086 16.52,-24.3086 z m -0.52,-8.3164 c -15.34,0 -27.31,11.6953 -27.31,32.3711 0,21.707 12.75,33.1445 28.22,33.1445 15.99,0 27.3,-12.2148 27.3,-32.3633 0,-23.664 -14.69,-33.1523 -28.09,-33.1523 h -0.12"
         style="fill:#231f20;fill-opacity:1;fill-rule:nonzero;stroke:none"
         id="path76" /><path
         d="m 1373.31,28.3398 v 54.5977 h -8.59 v 8.3242 h 8.59 v 3.25 c 0,8.1913 1.68,15.9963 6.75,21.0623 4.04,4.16 9.62,5.715 14.44,5.715 3.89,0 7.15,-0.773 9.23,-1.691 l -1.57,-8.575 c -1.55,0.649 -3.64,1.301 -6.76,1.301 -8.96,0 -11.18,-8.32 -11.18,-17.5506 v -3.5117 h 14.05 v -8.3242 h -14.05 V 28.3398 h -10.91"
         style="fill:#231f20;fill-opacity:1;fill-rule:nonzero;stroke:none"
         id="path78" /><path
         d="M 1446.1,106.211 V 91.2617 h 15.08 V 82.9375 H 1446.1 V 47.9688 c 0,-7.9297 2.47,-11.6993 8.06,-11.6993 2.6,0 4.29,0.2618 5.85,0.6563 l 0.39,-8.3242 c -2.08,-0.7813 -5.2,-1.4336 -9.36,-1.4336 -4.81,0 -8.97,1.5625 -11.57,4.5508 -2.86,3.2539 -4.16,8.4492 -4.16,16.25 v 34.9687 h -9.1 v 8.3242 h 9.1 v 11.3043 l 10.79,3.645"
         style="fill:#231f20;fill-opacity:1;fill-rule:nonzero;stroke:none"
         id="path80" /><path
         d="m 1473.01,119.988 h 10.93 V 82.4219 h 0.25 c 1.69,2.8594 4.3,5.4609 7.28,7.2851 3.13,1.8164 6.64,2.8516 10.8,2.8516 8.18,0 19.63,-5.4609 19.63,-25.4805 V 28.3398 h -10.92 v 37.5665 c 0,9.4921 -3.26,17.5507 -12.74,17.5507 -6.51,0 -11.7,-4.6797 -13.66,-11.0468 -0.51,-1.4336 -0.64,-3.25 -0.64,-5.2032 V 28.3398 h -10.93 v 91.6482"
         style="fill:#231f20;fill-opacity:1;fill-rule:nonzero;stroke:none"
         id="path82" /><path
         d="m 1575.2,66.0469 c 0.13,8.8359 -3.38,18.457 -13.91,18.457 -10.15,0 -14.57,-10.2773 -15.35,-18.457 z m -29.39,-7.9336 c 0.13,-16.6406 9.37,-22.3594 19.5,-22.3594 7.02,0 11.7,1.2969 15.34,2.9844 l 1.83,-7.9297 c -3.77,-1.8164 -10.27,-3.6406 -18.73,-3.6406 -18.07,0 -28.6,12.6172 -28.6,31.7187 0,19.375 10.53,33.6719 27.17,33.6719 18.21,0 23.4,-16.6406 23.4,-28.9844 0,-2.4726 -0.12,-4.1601 -0.39,-5.4609 h -39.52"
         style="fill:#231f20;fill-opacity:1;fill-rule:nonzero;stroke:none"
         id="path84" /><path
         d="m 1635.9,72.6758 c 2.09,-0.6563 4.69,-0.7813 7.8,-0.7813 12.48,0 20.28,6.6289 20.28,18.7188 0,10.9177 -6.89,17.2847 -18.98,17.2847 -4.16,0 -7.28,-0.386 -9.1,-0.781 z m -10.92,42.2462 c 5.08,0.906 11.45,1.687 19.63,1.687 10.14,0 17.95,-2.332 23.01,-7.019 4.55,-4.16 7.28,-10.5275 7.28,-18.3283 0,-7.9336 -2.2,-14.0351 -6.36,-18.457 -5.59,-6.5039 -14.83,-9.7578 -24.97,-9.7578 -2.86,0 -5.46,0.1367 -7.67,0.6523 V 28.3398 h -10.92 v 86.5822"
         style="fill:#231f20;fill-opacity:1;fill-rule:nonzero;stroke:none"
         id="path86" /><path
         d="m 1686.74,72.6758 c 0,6.7578 -0.27,13.125 -0.53,18.5859 h 9.63 l 0.51,-11.7031 h 0.39 c 2.6,7.8047 9.1,13 16.13,13 1.16,0 1.94,-0.125 2.85,-0.2539 V 81.6406 c -0.91,0.2617 -1.95,0.2617 -3.24,0.2617 -7.55,0 -13.01,-5.9843 -14.43,-14.1679 -0.27,-1.5625 -0.39,-3.5156 -0.39,-5.461 V 28.3398 h -10.92 v 44.336"
         style="fill:#231f20;fill-opacity:1;fill-rule:nonzero;stroke:none"
         id="path88" /><path
         d="m 1748.48,35.3594 c 10.27,0 16.52,11.5742 16.52,24.5742 0,10.3984 -4.3,24.3047 -16.52,24.3047 -12.09,0 -16.64,-13.2617 -16.64,-24.5703 0,-12.7344 6.11,-24.3086 16.52,-24.3086 z m -0.51,-8.3164 c -15.35,0 -27.31,11.6953 -27.31,32.3711 0,21.707 12.74,33.1445 28.21,33.1445 15.99,0 27.3,-12.2148 27.3,-32.3633 0,-23.664 -14.69,-33.1523 -28.08,-33.1523 h -0.12"
         style="fill:#231f20;fill-opacity:1;fill-rule:nonzero;stroke:none"
         id="path90" /><path
         d="m 1793.33,91.2617 11.05,-35.2265 c 1.69,-5.4688 3.12,-10.6641 4.43,-15.9961 h 0.25 c 1.3,5.2031 2.86,10.3984 4.55,15.9961 l 10.92,35.2265 h 11.31 l -22.23,-62.9219 h -10.27 l -21.71,62.9219 h 11.7"
         style="fill:#231f20;fill-opacity:1;fill-rule:nonzero;stroke:none"
         id="path92" /><path
         d="m 1846.11,28.3398 v 62.9219 h 10.92 V 28.3398 Z m 5.2,73.3202 c -3.9,0 -6.62,2.988 -6.62,6.895 0,4.023 2.85,7.019 6.76,7.019 4.02,0 6.75,-2.996 6.75,-7.019 0,-3.907 -2.59,-6.895 -6.75,-6.895 h -0.14"
         style="fill:#231f20;fill-opacity:1;fill-rule:nonzero;stroke:none"
         id="path94" /><path
         d="m 1874.59,74.4922 c 0,6.7578 -0.27,11.5703 -0.53,16.7695 h 9.62 l 0.66,-9.4961 h 0.25 c 2.99,5.5977 9.63,10.793 18.85,10.793 8.59,0 20.02,-5.5859 20.02,-25.2148 v -39.004 h -10.92 v 37.5665 c 0,9.3671 -3.12,17.5507 -12.74,17.5507 -6.5,0 -11.83,-4.8047 -13.65,-11.3086 -0.39,-1.4257 -0.64,-3.3789 -0.64,-5.332 V 28.3398 h -10.92 v 46.1524"
         style="fill:#231f20;fill-opacity:1;fill-rule:nonzero;stroke:none"
         id="path96" /><path
         d="m 1981.31,30.4219 c -2.73,-1.4297 -8.45,-3.2539 -15.72,-3.2539 -17.3,0 -28.87,12.3515 -28.87,32.1093 0,18.9844 12.09,33.2813 31.21,33.2813 5.71,0 11.04,-1.4258 13.77,-2.9883 l -2.46,-8.4492 c -2.35,1.1758 -6.11,2.6016 -11.45,2.6016 -13.12,0 -19.89,-11.1836 -19.89,-24.0547 0,-14.5625 8.19,-23.5274 19.76,-23.5274 5.33,0 8.97,1.3008 11.97,2.5977 l 1.68,-8.3164"
         style="fill:#231f20;fill-opacity:1;fill-rule:nonzero;stroke:none"
         id="path98" /><path
         d="m 2028.5,66.0469 c 0.13,8.8359 -3.38,18.457 -13.91,18.457 -10.14,0 -14.56,-10.2773 -15.34,-18.457 z m -29.38,-7.9336 c 0.13,-16.6406 9.36,-22.3594 19.49,-22.3594 7.03,0 11.71,1.2969 15.35,2.9844 l 1.82,-7.9297 c -3.77,-1.8164 -10.27,-3.6406 -18.72,-3.6406 -18.08,0 -28.6,12.6172 -28.6,31.7187 0,19.375 10.52,33.6719 27.17,33.6719 18.2,0 23.4,-16.6406 23.4,-28.9844 0,-2.4726 -0.12,-4.1601 -0.39,-5.4609 h -39.52"
         style="fill:#231f20;fill-opacity:1;fill-rule:nonzero;stroke:none"
         id="path100" /><path
         d="m 2101.56,35.3594 c 10.28,0 16.51,11.5742 16.51,24.5742 0,10.3984 -4.29,24.3047 -16.51,24.3047 -12.09,0 -16.64,-13.2617 -16.64,-24.5703 0,-12.7344 6.12,-24.3086 16.51,-24.3086 z m -0.52,-8.3164 c -15.34,0 -27.31,11.6953 -27.31,32.3711 0,21.707 12.75,33.1445 28.22,33.1445 15.99,0 27.3,-12.2148 27.3,-32.3633 0,-23.664 -14.69,-33.1523 -28.08,-33.1523 h -0.13"
         style="fill:#231f20;fill-opacity:1;fill-rule:nonzero;stroke:none"
         id="path102" /><path
         d="m 2144.06,28.3398 v 54.5977 h -8.57 v 8.3242 h 8.57 v 3.25 c 0,8.1913 1.7,15.9963 6.76,21.0623 4.04,4.16 9.63,5.715 14.43,5.715 3.91,0 7.15,-0.773 9.24,-1.691 l -1.56,-8.575 c -1.56,0.649 -3.64,1.301 -6.76,1.301 -8.97,0 -11.19,-8.32 -11.19,-17.5506 v -3.5117 h 14.04 v -8.3242 h -14.04 V 28.3398 h -10.92"
         style="fill:#231f20;fill-opacity:1;fill-rule:nonzero;stroke:none"
         id="path104" /><path
         d="m 2215.04,36.7852 c 1.95,-0.3907 4.69,-0.5157 8.2,-0.5157 11.31,0 20.92,4.8164 20.92,17.1602 0,11.9609 -9.75,17.168 -21.19,17.168 h -7.93 z m 0,41.9921 h 8.59 c 10.78,0 17.82,6.379 17.82,15.0899 0,9.4808 -6.51,14.2968 -17.7,14.2968 -4.41,0 -7.01,-0.391 -8.71,-0.781 z m -10.92,36.0197 c 4.83,1.031 11.7,1.812 18.85,1.812 10.41,0 17.42,-1.812 22.64,-6.238 4.27,-3.508 6.87,-8.711 6.87,-15.4687 0,-8.5859 -5.45,-15.9843 -14.41,-19.2382 v -0.3907 c 8.96,-2.207 17.54,-9.3671 17.54,-21.9726 0,-7.4102 -2.74,-13.2617 -7.15,-17.4219 -5.73,-5.7226 -14.94,-8.1953 -28.09,-8.1953 -7.4,0 -12.73,0.5312 -16.25,0.918 v 86.1954"
         style="fill:#231f20;fill-opacity:1;fill-rule:nonzero;stroke:none"
         id="path106" /><path
         d="m 2269.12,72.6758 c 0,6.7578 -0.25,13.125 -0.51,18.5859 h 9.61 l 0.53,-11.7031 h 0.39 c 2.6,7.8047 9.1,13 16.11,13 1.18,0 1.96,-0.125 2.88,-0.2539 V 81.6406 c -0.92,0.2617 -1.96,0.2617 -3.27,0.2617 -7.54,0 -12.98,-5.9843 -14.43,-14.1679 -0.25,-1.5625 -0.39,-3.5156 -0.39,-5.461 V 28.3398 h -10.92 v 44.336"
         style="fill:#231f20;fill-opacity:1;fill-rule:nonzero;stroke:none"
         id="path108" /><path
         d="m 2308.65,28.3398 v 62.9219 h 10.92 V 28.3398 Z m 5.2,73.3202 c -3.91,0 -6.62,2.988 -6.62,6.895 0,4.023 2.85,7.019 6.75,7.019 4.03,0 6.76,-2.996 6.76,-7.019 0,-3.907 -2.6,-6.895 -6.76,-6.895 h -0.13"
         style="fill:#231f20;fill-opacity:1;fill-rule:nonzero;stroke:none"
         id="path110" /><path
         d="M 2350.25,106.211 V 91.2617 h 15.08 v -8.3242 h -15.08 V 47.9688 c 0,-7.9297 2.46,-11.6993 8.05,-11.6993 2.6,0 4.3,0.2618 5.86,0.6563 l 0.39,-8.3242 c -2.09,-0.7813 -5.19,-1.4336 -9.35,-1.4336 -4.83,0 -8.99,1.5625 -11.59,4.5508 -2.85,3.2539 -4.16,8.4492 -4.16,16.25 v 34.9687 h -9.1 v 8.3242 h 9.1 v 11.3043 l 10.8,3.645"
         style="fill:#231f20;fill-opacity:1;fill-rule:nonzero;stroke:none"
         id="path112" /><path
         d="m 2377.15,28.3398 v 62.9219 h 10.92 V 28.3398 Z m 5.21,73.3202 c -3.9,0 -6.64,2.988 -6.64,6.895 0,4.023 2.87,7.019 6.76,7.019 4.04,0 6.76,-2.996 6.76,-7.019 0,-3.907 -2.6,-6.895 -6.76,-6.895 h -0.12"
         style="fill:#231f20;fill-opacity:1;fill-rule:nonzero;stroke:none"
         id="path114" /><path
         d="m 2403.93,39.6484 c 2.98,-1.9531 8.45,-4.1601 13.65,-4.1601 7.54,0 11.31,3.9062 11.31,9.3633 0,5.1992 -2.85,8.1836 -10.65,11.7031 -10.41,4.4141 -15.49,10.3984 -15.49,17.9375 0,10.1367 8.07,18.0664 20.41,18.0664 6,0 10.94,-1.6914 14.18,-3.6328 l -2.73,-8.0664 c -2.46,1.5625 -6.5,3.3789 -11.56,3.3789 -6.37,0 -9.75,-3.8945 -9.75,-8.4453 0,-4.9453 3.11,-7.2774 10.65,-10.793 9.76,-4.1602 15.46,-9.7461 15.46,-18.9844 0,-11.5625 -8.57,-18.8476 -22.09,-18.8476 -6.25,0 -12.22,1.6875 -16.11,4.1601 l 2.72,8.3203"
         style="fill:#231f20;fill-opacity:1;fill-rule:nonzero;stroke:none"
         id="path116" /><path
         d="m 2452.95,119.988 h 10.92 V 82.4219 h 0.25 c 1.7,2.8594 4.3,5.4609 7.29,7.2851 3.12,1.8164 6.64,2.8516 10.8,2.8516 8.18,0 19.63,-5.4609 19.63,-25.4805 V 28.3398 h -10.94 v 37.5665 c 0,9.4921 -3.24,17.5507 -12.74,17.5507 -6.5,0 -11.7,-4.6797 -13.65,-11.0468 -0.51,-1.4336 -0.64,-3.25 -0.64,-5.2032 V 28.3398 h -10.92 v 91.6482"
         style="fill:#231f20;fill-opacity:1;fill-rule:nonzero;stroke:none"
         id="path118" /><path
         d="m 2599.32,30.8086 c -3.64,-1.9531 -10.79,-3.6406 -19.89,-3.6406 -22.48,0 -39,15.0781 -39,44.0703 0,29.6407 18.07,45.8907 41.21,45.8907 9.24,0 15.22,-1.945 17.81,-3.379 l -2.59,-8.965 c -3.64,1.817 -8.46,3.113 -14.95,3.113 -17.16,0 -30.03,-11.9605 -30.03,-36.0035 0,-23.1445 11.56,-35.3632 29.64,-35.3632 6.1,0 11.96,1.3007 15.73,3.1171 l 2.07,-8.8398"
         style="fill:#231f20;fill-opacity:1;fill-rule:nonzero;stroke:none"
         id="path120" /><path
         d="m 2634.04,35.3594 c 10.28,0 16.51,11.5742 16.51,24.5742 0,10.3984 -4.3,24.3047 -16.51,24.3047 -12.09,0 -16.64,-13.2617 -16.64,-24.5703 0,-12.7344 6.12,-24.3086 16.51,-24.3086 z m -0.52,-8.3164 c -15.34,0 -27.31,11.6953 -27.31,32.3711 0,21.707 12.75,33.1445 28.22,33.1445 15.98,0 27.31,-12.2148 27.31,-32.3633 0,-23.664 -14.71,-33.1523 -28.09,-33.1523 h -0.13"
         style="fill:#231f20;fill-opacity:1;fill-rule:nonzero;stroke:none"
         id="path122" /><path
         d="m 2675.23,119.988 h 10.92 V 28.3398 h -10.92 v 91.6482"
         style="fill:#231f20;fill-opacity:1;fill-rule:nonzero;stroke:none"
         id="path124" /><path
         d="m 2752.07,45.4961 c 0,-6.6289 0.25,-12.2148 0.53,-17.1563 h -9.63 l -0.65,9.1016 h -0.27 c -2.6,-4.4258 -8.69,-10.3984 -18.57,-10.3984 -10.28,0 -19.77,6.3633 -19.77,26.5195 v 37.6992 h 10.92 V 55.3828 c 0,-11.3125 3.12,-19.2422 12.34,-19.2422 7.15,0 11.7,5.461 13.26,9.875 0.53,1.6992 0.92,3.6407 0.92,5.8594 v 39.3867 h 10.92 V 45.4961"
         style="fill:#231f20;fill-opacity:1;fill-rule:nonzero;stroke:none"
         id="path126" /><path
         d="m 2769.63,74.4922 c 0,6.7578 -0.27,11.5703 -0.53,16.7695 h 9.63 l 0.51,-9.4961 h 0.27 c 3.24,5.7227 8.83,10.793 18.19,10.793 7.67,0 13.78,-4.5508 16.38,-11.6992 h 0.26 c 1.83,3.3789 4.29,6.1133 6.77,7.9297 3.38,2.4726 7.15,3.7695 12.21,3.7695 8.46,0 19.12,-5.7109 19.12,-25.7422 V 28.3398 h -10.8 V 65 c 0,11.0547 -3.5,18.457 -12.21,18.457 -5.86,0 -10.41,-4.414 -12.22,-10.0117 -0.53,-1.6875 -0.78,-3.6328 -0.78,-5.7109 V 28.3398 h -10.8 v 38.7383 c 0,9.1055 -3.5,16.3789 -11.7,16.3789 -6.23,0 -11.18,-5.0664 -12.74,-11.0468 -0.53,-1.6875 -0.78,-3.6407 -0.78,-5.5938 V 28.3398 h -10.78 v 46.1524"
         style="fill:#231f20;fill-opacity:1;fill-rule:nonzero;stroke:none"
         id="path128" /><path
         d="m 2880.64,52.6445 c 0,-1.4218 0.12,-2.8476 0.39,-4.0234 2.21,-8.4531 8.33,-12.7422 14.95,-12.7422 10.8,0 16.64,10.1367 16.64,24.1797 0,12.7461 -5.45,23.6641 -16.51,23.6641 -6.75,0 -13.12,-5.586 -14.96,-13.2618 -0.25,-1.3007 -0.51,-2.8632 -0.51,-4.5546 z m -10.91,67.3435 h 10.91 V 82.0313 h 0.26 c 3.77,6.7578 10.27,10.5273 18.98,10.5273 13.91,0 23.79,-12.4805 23.79,-31.9727 0,-22.625 -12.73,-33.5429 -25.49,-33.5429 -8.43,0 -14.55,3.6406 -18.57,11.0429 h -0.39 l -0.53,-9.7461 h -9.49 c 0.25,4.1602 0.53,10.6641 0.53,15.8594 v 75.7888"
         style="fill:#231f20;fill-opacity:1;fill-rule:nonzero;stroke:none"
         id="path130" /><path
         d="m 2937.19,28.3398 v 62.9219 h 10.92 V 28.3398 Z m 5.19,73.3202 c -3.9,0 -6.62,2.988 -6.62,6.895 0,4.023 2.85,7.019 6.76,7.019 4.02,0 6.76,-2.996 6.76,-7.019 0,-3.907 -2.6,-6.895 -6.76,-6.895 h -0.14"
         style="fill:#231f20;fill-opacity:1;fill-rule:nonzero;stroke:none"
         id="path132" /><path
         d="m 2995.82,60.5859 c -10.27,0.1289 -23.79,-1.6992 -23.79,-14.3086 0,-7.664 4.67,-10.9179 9.75,-10.9179 7.15,0 11.95,4.5508 13.51,10.1367 0.39,1.1758 0.53,2.4727 0.53,3.6445 z m 10.64,-17.4218 c 0,-5.2032 0.14,-10.5352 0.92,-14.8243 h -9.88 l -0.9,7.5391 h -0.39 c -3.26,-4.8047 -9.24,-8.8359 -17.3,-8.8359 -11.31,0 -17.82,8.4453 -17.82,18.0625 0,15.3437 13.15,23.2734 34.46,23.1484 v 1.5586 c 0,6.1055 -1.68,14.5625 -12.99,14.4258 -5.33,0 -10.67,-1.5547 -14.57,-4.2891 l -2.46,7.5391 c 4.41,2.8633 11.42,5.0703 18.85,5.0703 17.14,0 22.08,-11.6992 22.08,-24.8242 V 43.1641"
         style="fill:#231f20;fill-opacity:1;fill-rule:nonzero;stroke:none"
         id="path134" /></g></g></svg>
