<?xml version="1.0" encoding="UTF-8" standalone="no"?>
<svg
   xmlns:dc="http://purl.org/dc/elements/1.1/"
   xmlns:cc="http://creativecommons.org/ns#"
   xmlns:rdf="http://www.w3.org/1999/02/22-rdf-syntax-ns#"
   xmlns:svg="http://www.w3.org/2000/svg"
   xmlns="http://www.w3.org/2000/svg"
   xmlns:sodipodi="http://sodipodi.sourceforge.net/DTD/sodipodi-0.dtd"
   xmlns:inkscape="http://www.inkscape.org/namespaces/inkscape"
   version="1.1"
   id="svg2"
   xml:space="preserve"
   width="649.1333"
   height="98.400002"
   viewBox="0 0 649.1333 98.400002"
   sodipodi:docname="CanadaCouncilLogo_e_l.eps"><metadata
     id="metadata8"><rdf:RDF><cc:Work
         rdf:about=""><dc:format>image/svg+xml</dc:format><dc:type
           rdf:resource="http://purl.org/dc/dcmitype/StillImage" /></cc:Work></rdf:RDF></metadata><defs
     id="defs6" /><sodipodi:namedview
     pagecolor="#ffffff"
     bordercolor="#666666"
     borderopacity="1"
     objecttolerance="10"
     gridtolerance="10"
     guidetolerance="10"
     inkscape:pageopacity="0"
     inkscape:pageshadow="2"
     inkscape:window-width="640"
     inkscape:window-height="480"
     id="namedview4" /><g
     id="g10"
     inkscape:groupmode="layer"
     inkscape:label="ink_ext_XXXXXX"
     transform="matrix(1.3333333,0,0,-1.3333333,0,98.4)"><g
       id="g12"
       transform="scale(0.1)"><path
         d="M 696.547,161.016 C 658.789,197.461 550.328,229.23 438.98,235.773 431.012,229.797 425.387,223.457 422.211,216.816 516.137,212.5 606.344,185.723 639.703,155.84 669.906,131.965 665.375,99.1016 630.355,76.4258 579.199,40.7422 473.633,24.2969 359.008,24.668 244.387,24.2969 138.816,40.7422 87.6602,76.4258 52.6406,99.1016 48.1094,131.965 78.3164,155.84 c 33.3596,29.883 123.5746,56.66 217.4886,60.976 -3.172,6.641 -8.797,12.981 -16.766,18.957 C 167.691,229.23 59.2266,197.461 21.4805,161.016 -29.7266,114.766 11.0508,62.0313 122.816,29.2969 185.199,10.4023 272.504,0.246094 359.008,0 445.504,0.246094 532.844,10.4023 595.199,29.2969 706.969,62.0313 747.742,114.766 696.547,161.016"
         style="fill:#3c211d;fill-opacity:1;fill-rule:nonzero;stroke:none"
         id="path14" /><path
         d="m 637.055,488.82 c -2.078,30.821 -26.922,54.696 -56.672,65.633 12.277,17.09 13.969,36.016 5.254,56.914 -13.879,33.262 -52.555,43.77 -75.387,42.207 -32.551,-2.246 -51.902,-15.859 -86.145,-42.078 -7.933,6.055 -24.078,18.106 -31.136,23.563 0,0 23.301,19.218 47.914,32.285 23.512,12.461 40.367,12.519 40.367,12.519 0,0 -42.402,57.77 -122.102,58.133 v 0.008 c -0.043,0 -0.085,0 -0.14,0 -0.055,0 -0.098,0 -0.141,0 v -0.008 c -79.711,-0.363 -122.101,-58.133 -122.101,-58.133 0,0 16.859,-0.058 40.359,-12.519 24.625,-13.067 47.926,-32.285 47.926,-32.285 -7.063,-5.457 -23.203,-17.508 -31.129,-23.563 -34.254,26.219 -53.606,39.832 -86.152,42.078 -22.832,1.563 -61.508,-8.945 -75.387,-42.207 -8.715,-20.898 -7.028,-39.824 5.238,-56.914 C 107.867,543.516 83.043,519.641 80.9609,488.82 78.8867,458.125 96.9102,429.707 128.832,415.852 119.973,404.258 115.57,391.27 115.57,380.109 c -0.007,-29.699 26.653,-70.461 83.789,-68.898 42.645,1.172 59.586,14.453 93.161,40.391 16.371,-27.528 25.062,-61.895 27.406,-93.848 6.262,-85.488 -22.629,-143.289 -22.629,-143.289 0,0 1.351,-0.051 3.695,-0.129 1.18,-0.254 23.192,-4.844 55.567,-5.145 0.82,0 1.629,0.02 2.449,0.02 0.82,0 1.633,-0.02 2.453,-0.02 32.371,0.301 54.383,4.891 55.566,5.145 2.336,0.078 3.696,0.129 3.696,0.129 0,0 -28.891,57.801 -22.633,143.289 2.344,31.953 11.035,66.32 27.41,93.848 33.57,-25.938 50.539,-39.219 93.156,-40.391 57.153,-1.563 83.789,39.199 83.789,68.898 0,11.161 -4.398,24.149 -13.261,35.743 31.914,13.855 49.949,42.273 47.871,72.968 z M 508.738,610.859 c 29.641,1.504 41.481,-16.464 39.004,-28.496 -2.996,-14.843 -21.578,-25.996 -38.781,-24.101 -17.098,1.855 -29.773,10.39 -50.481,26.972 13.922,10.93 30.977,24.649 50.258,25.625 z m -84.074,-51.386 c 9.652,-7.098 18.805,-14.18 26.113,-19.668 3.852,-2.891 7.094,-5.684 11.164,-8.321 -4.968,-3.554 -8.886,-6.765 -14.621,-11.152 -4.179,-3.184 -10.828,-8.144 -17.05,-12.812 -10.266,7.793 -22.602,16.972 -37.082,28.097 9.742,7.254 20.109,15.457 31.476,23.856 z m -108,129.941 c 0,0 10.801,11.652 42.344,11.895 31.543,-0.243 42.344,-11.895 42.344,-11.895 0,0 -8.11,-4.375 -19.766,-12.519 -14.969,-10.489 -22.481,-16.563 -22.578,-16.641 -0.098,0.078 -7.606,6.152 -22.578,16.641 -11.657,8.144 -19.766,12.519 -19.766,12.519 z m 42.344,-127.578 -0.297,0.215 c -12.363,9.277 -21.117,16.484 -30.883,23.75 7.871,6.008 17.172,13.176 30.121,22.969 l 1.059,0.761 1.058,-0.761 c 12.961,-9.793 22.254,-16.961 30.125,-22.969 -9.765,-7.266 -18.519,-14.473 -30.875,-23.75 z m -1.567,-53.125 1.567,1.23 1.566,-1.23 c 11.274,-8.836 23.067,-17.188 35.68,-26.981 -7.5,-5.578 -13.547,-10.156 -18.934,-14.171 -5.316,-3.946 -11.23,-8.407 -17.379,-13.067 l -0.933,-0.722 -0.934,0.722 c -6.144,4.66 -12.058,9.121 -17.375,13.067 -5.386,4.015 -11.437,8.593 -18.937,14.171 12.613,9.793 24.41,18.145 35.679,26.981 z m -64.086,50.762 c 11.379,-8.399 21.735,-16.602 31.473,-23.856 -14.469,-11.125 -26.816,-20.304 -37.078,-28.097 -6.242,4.668 -12.871,9.628 -17.051,12.812 -5.722,4.387 -9.652,7.598 -14.625,11.152 4.063,2.637 7.317,5.43 11.168,8.321 7.309,5.488 16.469,12.57 26.113,19.668 z m -84.078,51.386 c 19.282,-0.976 36.313,-14.695 50.258,-25.625 -20.707,-16.582 -33.367,-25.117 -50.476,-26.972 -17.204,-1.895 -35.789,9.258 -38.789,24.101 -2.461,12.032 9.371,30 39.007,28.496 z M 122.641,480.48 c -0.746,15.985 10.757,38.036 52.543,40.45 28.183,1.621 48.254,-15.364 79.23,-38.43 C 229.352,463.625 210,447.617 174.34,445.039 c -28.758,-2.09 -50.934,19.316 -51.699,35.441 z m 80.101,-129.425 c -30.062,-1.485 -47.797,13.359 -46.73,29.797 0.82,12.918 29.187,42.918 88.375,16.257 8.328,-3.757 14.816,-7.89 21.648,-13.738 -29.277,-21.906 -40.449,-31.191 -63.293,-32.316 z m 95.481,56.855 c -10.934,10.481 -23.02,19.59 -38.789,26.895 9.273,6.269 18.511,13.359 28.171,21.25 0.426,0.371 0.54,0.371 0.973,0.722 13.203,-10.027 25.942,-19.55 37.063,-28.105 -9.61,-7.363 -18.477,-14.012 -27.418,-20.762 z m 61.703,-117.793 -0.918,-4.121 -0.918,4.121 c -7.949,34.082 -18.617,64.082 -32.953,86.309 11.929,8.937 22.718,17.187 33.871,25.625 11.152,-8.438 21.945,-16.688 33.875,-25.625 -14.336,-22.227 -25.008,-52.227 -32.957,-86.309 z m 59.879,117.793 c -8.95,6.75 -17.817,13.399 -27.426,20.762 11.117,8.555 23.855,18.078 37.059,28.105 0.437,-0.351 0.546,-0.351 0.984,-0.722 9.652,-7.891 18.891,-14.981 28.172,-21.25 -15.781,-7.305 -27.867,-16.414 -38.789,-26.895 z m 95.461,-56.855 c -22.836,1.125 -34.016,10.41 -63.286,32.316 6.833,5.848 13.325,9.981 21.653,13.738 59.211,26.661 87.555,-3.339 88.363,-16.257 1.07,-16.438 -16.66,-31.282 -46.73,-29.797 z m 28.41,93.984 c -35.66,2.578 -54.985,18.586 -80.074,37.461 30.996,23.066 51.046,40.051 79.242,38.43 41.765,-2.414 53.281,-24.465 52.531,-40.45 -0.766,-16.125 -22.937,-37.531 -51.699,-35.441"
         style="fill:#3c211d;fill-opacity:1;fill-rule:nonzero;stroke:none"
         id="path16" /><path
         d="m 1143.21,377.539 c -12.24,-2.879 -25.44,-5.281 -38.16,-5.281 -54.24,0 -91.92,27.117 -91.92,83.758 0,57.363 35.04,89.523 91.92,89.523 11.04,0 25.68,-2.16 37.92,-6.965 l -2.4,-28.32 c -12.72,7.207 -24.24,8.887 -36.24,8.887 -34.56,0 -56.16,-26.407 -56.16,-60.723 0,-34.082 21.12,-59.766 56.88,-59.766 13.2,0 28.8,2.883 36.72,6.965 l 1.44,-28.078"
         style="fill:#3c211d;fill-opacity:1;fill-rule:nonzero;stroke:none"
         id="path18" /><path
         d="m 1187.85,410.898 c 0,18.957 21.36,21.36 35.76,21.36 h 13.92 c 0,-9.602 -1.44,-18.477 -6.72,-25.442 -5.04,-6.718 -12.72,-11.035 -22.56,-11.035 -11.52,0 -20.4,4.551 -20.4,15.117 z m -16.32,53.762 c 10.8,8.164 24.48,13.438 38.16,13.438 18.96,0 27.84,-6.719 27.84,-26.641 h -17.76 c -13.44,0 -29.28,-1.203 -41.52,-7.199 -12.24,-5.996 -21.12,-16.797 -21.12,-35.281 0,-23.516 21.36,-36.719 43.2,-36.719 14.64,0 30.72,7.683 38.16,21.355 h 0.48 c 0.24,-3.836 0.24,-11.992 1.44,-18.476 h 28.32 c -0.72,9.601 -1.2,18.242 -1.44,27.597 -0.24,9.121 -0.48,18.489 -0.48,30.969 v 15.84 c 0,36.473 -15.6,52.078 -53.28,52.078 -13.68,0 -30.48,-3.601 -42.96,-9.363 l 0.96,-27.598"
         style="fill:#3c211d;fill-opacity:1;fill-rule:nonzero;stroke:none"
         id="path20" /><path
         d="m 1298.49,498.742 h 30.48 v -16.808 h 0.48 c 10.08,14.16 23.76,19.687 40.56,19.687 29.28,0 42,-20.644 42,-48.484 v -78 h -32.16 v 65.996 c 0,15.129 -0.24,35.527 -20.88,35.527 -23.28,0 -28.32,-25.203 -28.32,-41.043 v -60.48 h -32.16 v 123.605"
         style="fill:#3c211d;fill-opacity:1;fill-rule:nonzero;stroke:none"
         id="path22" /><path
         d="m 1467.93,410.898 c 0,18.957 21.36,21.36 35.76,21.36 h 13.92 c 0,-9.602 -1.44,-18.477 -6.72,-25.442 -5.04,-6.718 -12.72,-11.035 -22.57,-11.035 -11.52,0 -20.39,4.551 -20.39,15.117 z m -16.32,53.762 c 10.8,8.164 24.48,13.438 38.16,13.438 18.96,0 27.84,-6.719 27.84,-26.641 h -17.76 c -13.44,0 -29.28,-1.203 -41.53,-7.199 -12.23,-5.996 -21.11,-16.797 -21.11,-35.281 0,-23.516 21.36,-36.719 43.2,-36.719 14.64,0 30.72,7.683 38.16,21.355 h 0.48 c 0.24,-3.836 0.24,-11.992 1.44,-18.476 h 28.32 c -0.72,9.601 -1.2,18.242 -1.44,27.597 -0.24,9.121 -0.48,18.489 -0.48,30.969 v 15.84 c 0,36.473 -15.6,52.078 -53.28,52.078 -13.68,0 -30.48,-3.601 -42.96,-9.363 l 0.96,-27.598"
         style="fill:#3c211d;fill-opacity:1;fill-rule:nonzero;stroke:none"
         id="path24" /><path
         d="m 1604.25,437.297 c 0,16.562 5.75,39.363 26.64,39.363 20.64,0 28.8,-22.078 28.8,-39.363 0,-17.52 -6.96,-40.078 -28.32,-40.078 -21.12,0 -27.12,23.035 -27.12,40.078 z m 56.64,-62.16 h 31.2 v 180 h -32.16 v -70.801 h -0.48 c -9.6,11.758 -20.88,17.285 -36.97,17.285 -37.91,0 -51.84,-30.242 -51.84,-64.324 0,-33.84 13.93,-65.039 51.84,-65.039 15.13,0 28.32,4.805 37.93,16.797 h 0.48 v -13.918"
         style="fill:#3c211d;fill-opacity:1;fill-rule:nonzero;stroke:none"
         id="path26" /><path
         d="m 1748,410.898 c 0,18.957 21.36,21.36 35.77,21.36 h 13.91 c 0,-9.602 -1.43,-18.477 -6.71,-25.442 -5.04,-6.718 -12.72,-11.035 -22.57,-11.035 -11.51,0 -20.4,4.551 -20.4,15.117 z m -16.32,53.762 c 10.8,8.164 24.49,13.438 38.16,13.438 18.96,0 27.84,-6.719 27.84,-26.641 h -17.75 c -13.45,0 -29.29,-1.203 -41.53,-7.199 -12.23,-5.996 -21.11,-16.797 -21.11,-35.281 0,-23.516 21.36,-36.719 43.19,-36.719 14.65,0 30.73,7.683 38.17,21.355 h 0.48 c 0.23,-3.836 0.23,-11.992 1.44,-18.476 h 28.32 c -0.73,9.601 -1.21,18.242 -1.44,27.597 -0.24,9.121 -0.48,18.489 -0.48,30.969 v 15.84 c 0,36.473 -15.6,52.078 -53.28,52.078 -13.69,0 -30.49,-3.601 -42.96,-9.363 l 0.95,-27.598"
         style="fill:#3c211d;fill-opacity:1;fill-rule:nonzero;stroke:none"
         id="path28" /><path
         d="m 2050.17,377.539 c -12.24,-2.879 -25.44,-5.281 -38.16,-5.281 -54.24,0 -91.93,27.117 -91.93,83.758 0,57.363 35.05,89.523 91.93,89.523 11.04,0 25.67,-2.16 37.92,-6.965 l -2.41,-28.32 c -12.72,7.207 -24.23,8.887 -36.23,8.887 -34.57,0 -56.16,-26.407 -56.16,-60.723 0,-34.082 21.12,-59.766 56.88,-59.766 13.19,0 28.79,2.883 36.72,6.965 l 1.44,-28.078"
         style="fill:#3c211d;fill-opacity:1;fill-rule:nonzero;stroke:none"
         id="path30" /><path
         d="m 2097.68,439.941 c 0,18.477 10.09,36.719 30.96,36.719 21.13,0 31.2,-17.762 31.2,-36.719 0,-20.644 -6.48,-42.722 -31.2,-42.722 -24.48,0 -30.96,22.324 -30.96,42.722 z m -33.6,-3.847 c 0,-35.516 23.76,-63.836 64.56,-63.836 41.04,0 64.8,28.32 64.8,63.836 0,40.801 -28.07,65.527 -64.8,65.527 -36.48,0 -64.56,-24.726 -64.56,-65.527"
         style="fill:#3c211d;fill-opacity:1;fill-rule:nonzero;stroke:none"
         id="path32" /><path
         d="m 2332.16,375.137 h -30.48 v 16.797 h -0.48 c -9.84,-11.993 -23.75,-19.676 -40.56,-19.676 -29.28,0 -42,20.644 -42,48.476 v 78.008 h 32.16 v -66.008 c 0,-15.117 0.24,-35.515 20.88,-35.515 23.28,0 28.32,25.203 28.32,41.043 v 60.48 h 32.16 V 375.137"
         style="fill:#3c211d;fill-opacity:1;fill-rule:nonzero;stroke:none"
         id="path34" /><path
         d="m 2365.28,498.742 h 30.49 v -16.808 h 0.46 c 10.09,14.16 23.78,19.687 40.57,19.687 29.29,0 42,-20.644 42,-48.484 v -78 h -32.15 v 65.996 c 0,15.129 -0.23,35.527 -20.88,35.527 -23.28,0 -28.32,-25.203 -28.32,-41.043 v -60.48 h -32.17 v 123.605"
         style="fill:#3c211d;fill-opacity:1;fill-rule:nonzero;stroke:none"
         id="path36" /><path
         d="m 2592.08,472.102 c -5.76,2.636 -11.99,4.558 -21.83,4.558 -19.93,0 -32.64,-15.84 -32.64,-39.121 0,-22.801 10.8,-40.32 33.36,-40.32 9.12,0 19.2,3.359 24.72,5.761 l 1.43,-26.64 c -9.35,-2.883 -18.94,-4.082 -32.15,-4.082 -40.56,0 -60.95,27.597 -60.95,65.281 0,35.762 21.11,64.082 59.74,64.082 12.97,0 22.33,-1.445 31.21,-4.082 l -2.89,-25.437"
         style="fill:#3c211d;fill-opacity:1;fill-rule:nonzero;stroke:none"
         id="path38" /><path
         d="m 2619.21,498.742 h 32.15 V 375.137 h -32.15 z m 0,53.281 h 32.15 v -30.722 h -32.15 v 30.722"
         style="fill:#3c211d;fill-opacity:1;fill-rule:nonzero;stroke:none"
         id="path40" /><path
         d="m 2685.93,555.137 h 32.15 v -180 h -32.15 v 180"
         style="fill:#3c211d;fill-opacity:1;fill-rule:nonzero;stroke:none"
         id="path42" /><path
         d="m 1030.17,215.215 h -23.76 v 23.527 h 23.76 v 17.274 c 0,24.726 13.92,42.004 39.36,42.004 8.16,0 17.28,-1.204 23.52,-2.637 l -2.64,-26.641 c -2.88,1.68 -6.96,4.317 -13.92,4.317 -10.8,0 -14.16,-9.356 -14.16,-18.957 v -15.36 h 28.08 v -23.527 h -28.08 V 115.137 h -32.16 v 100.078"
         style="fill:#3c211d;fill-opacity:1;fill-rule:nonzero;stroke:none"
         id="path44" /><path
         d="m 1137.45,179.941 c 0,18.477 10.08,36.719 30.96,36.719 21.12,0 31.2,-17.762 31.2,-36.719 0,-20.644 -6.48,-42.722 -31.2,-42.722 -24.48,0 -30.96,22.324 -30.96,42.722 z m -33.6,-3.847 c 0,-35.516 23.76,-63.836 64.56,-63.836 41.04,0 64.8,28.32 64.8,63.836 0,40.801 -28.08,65.527 -64.8,65.527 -36.48,0 -64.56,-24.726 -64.56,-65.527"
         style="fill:#3c211d;fill-opacity:1;fill-rule:nonzero;stroke:none"
         id="path46" /><path
         d="m 1259.13,238.742 h 28.55 v -28.086 h 0.49 c 1.44,11.524 14.64,30.965 33.84,30.965 3.12,0 6.47,0 9.84,-0.965 v -32.394 c -2.88,1.679 -8.64,2.636 -14.4,2.636 -26.16,0 -26.16,-32.636 -26.16,-50.398 v -45.363 h -32.16 v 123.605"
         style="fill:#3c211d;fill-opacity:1;fill-rule:nonzero;stroke:none"
         id="path48" /><path
         d="m 1429.04,215.215 h -23.76 v 23.527 h 23.76 v 24.715 l 32.17,10.324 v -35.039 h 28.56 v -23.527 h -28.56 v -57.598 c 0,-10.554 2.88,-20.398 15.11,-20.398 5.77,0 11.29,1.199 14.65,3.359 l 0.96,-25.441 c -6.72,-1.922 -14.16,-2.879 -23.77,-2.879 -25.2,0 -39.12,15.605 -39.12,40.078 v 62.879"
         style="fill:#3c211d;fill-opacity:1;fill-rule:nonzero;stroke:none"
         id="path50" /><path
         d="M 1511.84,295.137 H 1544 v -73.203 h 0.48 c 8.16,12.004 22.08,19.687 38.88,19.687 29.28,0 42.01,-20.644 42.01,-48.484 v -78 h -32.17 v 65.996 c 0,15.129 -0.24,35.527 -20.88,35.527 -23.28,0 -28.32,-25.203 -28.32,-41.043 v -60.48 h -32.16 v 180"
         style="fill:#3c211d;fill-opacity:1;fill-rule:nonzero;stroke:none"
         id="path52" /><path
         d="m 1681.28,189.055 c 1.44,16.562 10.56,29.043 28.56,29.043 18,0 25.2,-13.438 26.16,-29.043 z m 76.32,-40.793 c -12,-6.727 -25.44,-12.481 -41.04,-12.481 -19.92,0 -33.84,11.282 -35.28,31.192 h 85.44 c 0,43.203 -12.96,74.648 -58.8,74.648 -38.4,0 -57.36,-29.519 -57.36,-65.281 0,-40.559 23.76,-64.082 64.56,-64.082 17.28,0 30.72,3.359 42.48,9.844 v 26.16"
         style="fill:#3c211d;fill-opacity:1;fill-rule:nonzero;stroke:none"
         id="path54" /><path
         d="m 1952.24,179.941 h -48.96 l 24.24,69.122 h 0.48 z m -108,-64.804 h 34.8 l 14.64,38.398 h 67.92 l 14.4,-38.398 h 37.2 l -65.76,167.519 h -37.92 l -65.28,-167.519"
         style="fill:#3c211d;fill-opacity:1;fill-rule:nonzero;stroke:none"
         id="path56" /><path
         d="m 2032.64,238.742 h 28.56 v -28.086 h 0.48 c 1.44,11.524 14.64,30.965 33.84,30.965 3.12,0 6.48,0 9.84,-0.965 v -32.394 c -2.88,1.679 -8.64,2.636 -14.4,2.636 -26.16,0 -26.16,-32.636 -26.16,-50.398 v -45.363 h -32.16 v 123.605"
         style="fill:#3c211d;fill-opacity:1;fill-rule:nonzero;stroke:none"
         id="path58" /><path
         d="m 2135.84,215.215 h -23.77 v 23.527 h 23.77 v 24.715 l 32.16,10.324 v -35.039 h 28.56 V 215.215 H 2168 v -57.598 c 0,-10.554 2.88,-20.398 15.12,-20.398 5.76,0 11.27,1.199 14.64,3.359 l 0.95,-25.441 c -6.71,-1.922 -14.16,-2.879 -23.75,-2.879 -25.2,0 -39.12,15.605 -39.12,40.078 v 62.879"
         style="fill:#3c211d;fill-opacity:1;fill-rule:nonzero;stroke:none"
         id="path60" /><path
         d="m 2292.07,212.824 c -9.84,3.36 -17.03,5.274 -28.79,5.274 -8.65,0 -18.96,-3.118 -18.96,-13.684 0,-19.676 55.92,-7.195 55.92,-51.836 0,-28.797 -25.69,-40.32 -51.85,-40.32 -12.23,0 -24.71,2.156 -36.48,5.281 l 1.92,26.399 c 10.08,-5.04 20.65,-8.157 31.68,-8.157 8.17,0 21.13,3.117 21.13,15.117 0,24.239 -55.93,7.676 -55.93,52.317 0,26.64 23.28,38.406 48.49,38.406 15.12,0 24.96,-2.402 35.03,-4.558 l -2.16,-24.239"
         style="fill:#3c211d;fill-opacity:1;fill-rule:nonzero;stroke:none"
         id="path62" /><path
         d="m 3218.33,377.539 c -12.23,-2.879 -25.43,-5.281 -38.15,-5.281 -54.25,0 -91.93,27.117 -91.93,83.758 0,57.363 35.04,89.523 91.93,89.523 11.04,0 25.67,-2.16 37.92,-6.965 l -2.41,-28.32 c -12.71,7.207 -24.23,8.887 -36.23,8.887 -34.57,0 -56.17,-26.407 -56.17,-60.723 0,-34.082 21.14,-59.766 56.89,-59.766 13.19,0 28.79,2.883 36.73,6.965 l 1.42,-28.078"
         style="fill:#3c211d;fill-opacity:1;fill-rule:nonzero;stroke:none"
         id="path64" /><path
         d="m 3265.85,439.941 c 0,18.477 10.08,36.719 30.95,36.719 21.14,0 31.22,-17.762 31.22,-36.719 0,-20.644 -6.48,-42.722 -31.22,-42.722 -24.46,0 -30.95,22.324 -30.95,42.722 z m -33.59,-3.847 c 0,-35.516 23.75,-63.836 64.54,-63.836 41.06,0 64.81,28.32 64.81,63.836 0,40.801 -28.09,65.527 -64.81,65.527 -36.46,0 -64.54,-24.726 -64.54,-65.527"
         style="fill:#3c211d;fill-opacity:1;fill-rule:nonzero;stroke:none"
         id="path66" /><path
         d="m 3386.8,498.742 h 30.5 v -16.808 h 0.47 c 10.09,14.16 23.77,19.687 40.56,19.687 29.28,0 42.01,-20.644 42.01,-48.484 v -78 h -32.16 v 65.996 c 0,15.129 -0.24,35.527 -20.88,35.527 -23.28,0 -28.33,-25.203 -28.33,-41.043 v -60.48 h -32.17 v 123.605"
         style="fill:#3c211d;fill-opacity:1;fill-rule:nonzero;stroke:none"
         id="path68" /><path
         d="m 3606.89,472.824 c -9.85,3.36 -17.04,5.274 -28.79,5.274 -8.66,0 -18.97,-3.118 -18.97,-13.684 0,-19.676 55.92,-7.195 55.92,-51.836 0,-28.797 -25.68,-40.32 -51.84,-40.32 -12.24,0 -24.73,2.156 -36.48,5.281 l 1.91,26.399 c 10.08,-5.04 20.65,-8.157 31.68,-8.157 8.16,0 21.14,3.117 21.14,15.117 0,24.239 -55.92,7.676 -55.92,52.317 0,26.64 23.28,38.406 48.48,38.406 15.11,0 24.95,-2.402 35.03,-4.558 l -2.16,-24.239"
         style="fill:#3c211d;fill-opacity:1;fill-rule:nonzero;stroke:none"
         id="path70" /><path
         d="m 3662.8,449.055 c 1.45,16.562 10.57,29.043 28.56,29.043 18.01,0 25.21,-13.438 26.17,-29.043 z m 76.33,-40.793 c -12.01,-6.727 -25.45,-12.481 -41.03,-12.481 -19.92,0 -33.85,11.282 -35.3,31.192 h 85.45 c 0,43.203 -12.96,74.648 -58.81,74.648 -38.39,0 -57.36,-29.519 -57.36,-65.281 0,-40.559 23.77,-64.082 64.57,-64.082 17.28,0 30.73,3.359 42.48,9.844 v 26.16"
         style="fill:#3c211d;fill-opacity:1;fill-rule:nonzero;stroke:none"
         id="path72" /><path
         d="m 3774.17,498.742 h 32.15 V 375.137 h -32.15 z m 0,53.281 h 32.15 v -30.722 h -32.15 v 30.722"
         style="fill:#3c211d;fill-opacity:1;fill-rule:nonzero;stroke:none"
         id="path74" /><path
         d="m 3840.89,555.137 h 32.15 v -180 h -32.15 v 180"
         style="fill:#3c211d;fill-opacity:1;fill-rule:nonzero;stroke:none"
         id="path76" /><path
         d="m 3999.29,437.297 c 0,16.562 5.76,39.363 26.64,39.363 20.64,0 28.8,-22.078 28.8,-39.363 0,-17.52 -6.96,-40.078 -28.31,-40.078 -21.13,0 -27.13,23.035 -27.13,40.078 z m 56.64,-62.16 h 31.19 v 180 h -32.15 v -70.801 h -0.49 c -9.59,11.758 -20.88,17.285 -36.95,17.285 -37.93,0 -51.84,-30.242 -51.84,-64.324 0,-33.84 13.91,-65.039 51.84,-65.039 15.11,0 28.32,4.805 37.91,16.797 h 0.49 v -13.918"
         style="fill:#3c211d;fill-opacity:1;fill-rule:nonzero;stroke:none"
         id="path78" /><path
         d="m 4143.04,449.055 c 1.44,16.562 10.56,29.043 28.57,29.043 17.99,0 25.19,-13.438 26.16,-29.043 z m 76.33,-40.793 c -11.99,-6.727 -25.45,-12.481 -41.04,-12.481 -19.92,0 -33.85,11.282 -35.29,31.192 h 85.44 c 0,43.203 -12.96,74.648 -58.8,74.648 -38.4,0 -57.37,-29.519 -57.37,-65.281 0,-40.559 23.78,-64.082 64.58,-64.082 17.28,0 30.72,3.359 42.48,9.844 v 26.16"
         style="fill:#3c211d;fill-opacity:1;fill-rule:nonzero;stroke:none"
         id="path80" /><path
         d="m 4327.12,472.824 c -9.85,3.36 -17.03,5.274 -28.79,5.274 -8.65,0 -18.96,-3.118 -18.96,-13.684 0,-19.676 55.92,-7.195 55.92,-51.836 0,-28.797 -25.69,-40.32 -51.84,-40.32 -12.25,0 -24.73,2.156 -36.49,5.281 l 1.92,26.399 c 10.08,-5.04 20.64,-8.157 31.67,-8.157 8.17,0 21.14,3.117 21.14,15.117 0,24.239 -55.92,7.676 -55.92,52.317 0,26.64 23.28,38.406 48.48,38.406 15.12,0 24.96,-2.402 35.04,-4.558 l -2.17,-24.239"
         style="fill:#3c211d;fill-opacity:1;fill-rule:nonzero;stroke:none"
         id="path82" /><path
         d="m 4520.55,439.941 h -48.96 l 24.26,69.122 h 0.47 z m -107.98,-64.804 h 34.78 l 14.65,38.398 h 67.91 l 14.42,-38.398 h 37.19 l -65.77,167.519 h -37.91 l -65.27,-167.519"
         style="fill:#3c211d;fill-opacity:1;fill-rule:nonzero;stroke:none"
         id="path84" /><path
         d="m 4600.95,498.742 h 28.57 v -28.086 h 0.47 c 1.44,11.524 14.65,30.965 33.85,30.965 3.12,0 6.48,0 9.84,-0.965 v -32.394 c -2.89,1.679 -8.65,2.636 -14.41,2.636 -26.15,0 -26.15,-32.636 -26.15,-50.398 v -45.363 h -32.17 v 123.605"
         style="fill:#3c211d;fill-opacity:1;fill-rule:nonzero;stroke:none"
         id="path86" /><path
         d="m 4704.15,475.215 h -23.75 v 23.527 h 23.75 v 24.715 l 32.17,10.324 v -35.039 h 28.56 v -23.527 h -28.56 v -57.598 c 0,-10.554 2.87,-20.398 15.11,-20.398 5.77,0 11.29,1.199 14.66,3.359 l 0.95,-25.441 c -6.72,-1.922 -14.16,-2.879 -23.77,-2.879 -25.19,0 -39.12,15.605 -39.12,40.078 v 62.879"
         style="fill:#3c211d;fill-opacity:1;fill-rule:nonzero;stroke:none"
         id="path88" /><path
         d="m 4860.4,472.824 c -9.85,3.36 -17.05,5.274 -28.81,5.274 -8.63,0 -18.96,-3.118 -18.96,-13.684 0,-19.676 55.92,-7.195 55.92,-51.836 0,-28.797 -25.67,-40.32 -51.84,-40.32 -12.23,0 -24.71,2.156 -36.49,5.281 l 1.94,26.399 c 10.08,-5.04 20.64,-8.157 31.68,-8.157 8.16,0 21.11,3.117 21.11,15.117 0,24.239 -55.91,7.676 -55.91,52.317 0,26.64 23.28,38.406 48.47,38.406 15.12,0 24.96,-2.402 35.04,-4.558 l -2.15,-24.239"
         style="fill:#3c211d;fill-opacity:1;fill-rule:nonzero;stroke:none"
         id="path90" /><path
         d="m 3119.21,177.297 c 0,16.562 5.76,39.363 26.64,39.363 20.65,0 28.81,-22.078 28.81,-39.363 0,-17.52 -6.95,-40.078 -28.32,-40.078 -21.12,0 -27.13,23.035 -27.13,40.078 z m 56.64,-62.16 h 31.21 v 180 h -32.17 v -70.801 h -0.46 c -9.62,11.758 -20.88,17.285 -36.98,17.285 -37.91,0 -51.83,-30.242 -51.83,-64.324 0,-33.84 13.92,-65.039 51.83,-65.039 15.12,0 28.32,4.805 37.93,16.797 h 0.47 v -13.918"
         style="fill:#3c211d;fill-opacity:1;fill-rule:nonzero;stroke:none"
         id="path92" /><path
         d="m 3353.7,115.137 h -30.49 v 16.797 h -0.49 c -9.82,-11.993 -23.75,-19.676 -40.54,-19.676 -29.28,0 -42.01,20.644 -42.01,48.476 v 78.008 h 32.17 v -66.008 c 0,-15.117 0.23,-35.515 20.87,-35.515 23.29,0 28.33,25.203 28.33,41.043 v 60.48 h 32.16 V 115.137"
         style="fill:#3c211d;fill-opacity:1;fill-rule:nonzero;stroke:none"
         id="path94" /><path
         d="m 3578.33,117.539 c -12.24,-2.879 -25.43,-5.281 -38.16,-5.281 -54.24,0 -91.92,27.117 -91.92,83.758 0,57.363 35.04,89.523 91.92,89.523 11.05,0 25.68,-2.16 37.93,-6.965 l -2.41,-28.32 c -12.71,7.207 -24.23,8.887 -36.25,8.887 -34.55,0 -56.15,-26.407 -56.15,-60.723 0,-34.082 21.12,-59.766 56.88,-59.766 13.2,0 28.8,2.883 36.72,6.965 l 1.44,-28.078"
         style="fill:#3c211d;fill-opacity:1;fill-rule:nonzero;stroke:none"
         id="path96" /><path
         d="m 3622.98,150.898 c 0,18.957 21.35,21.36 35.74,21.36 h 13.92 c 0,-9.602 -1.44,-18.477 -6.71,-25.442 -5.04,-6.718 -12.72,-11.035 -22.56,-11.035 -11.52,0 -20.39,4.551 -20.39,15.117 z m -16.33,53.762 c 10.8,8.164 24.48,13.438 38.16,13.438 18.97,0 27.83,-6.719 27.83,-26.641 h -17.75 c -13.43,0 -29.27,-1.203 -41.52,-7.199 -12.24,-5.996 -21.11,-16.797 -21.11,-35.281 0,-23.516 21.34,-36.719 43.2,-36.719 14.63,0 30.7,7.683 38.14,21.355 h 0.49 c 0.24,-3.836 0.24,-11.992 1.45,-18.476 h 28.32 c -0.72,9.601 -1.22,18.242 -1.45,27.597 -0.23,9.121 -0.48,18.489 -0.48,30.969 v 15.84 c 0,36.473 -15.59,52.078 -53.29,52.078 -13.67,0 -30.46,-3.601 -42.95,-9.363 l 0.96,-27.598"
         style="fill:#3c211d;fill-opacity:1;fill-rule:nonzero;stroke:none"
         id="path98" /><path
         d="m 3733.6,238.742 h 30.49 v -16.808 h 0.47 c 10.1,14.16 23.77,19.687 40.57,19.687 29.28,0 42.01,-20.644 42.01,-48.484 v -78 h -32.17 v 65.996 c 0,15.129 -0.24,35.527 -20.88,35.527 -23.28,0 -28.32,-25.203 -28.32,-41.043 v -60.48 h -32.17 v 123.605"
         style="fill:#3c211d;fill-opacity:1;fill-rule:nonzero;stroke:none"
         id="path100" /><path
         d="m 3903.05,150.898 c 0,18.957 21.36,21.36 35.75,21.36 h 13.92 c 0,-9.602 -1.44,-18.477 -6.71,-25.442 -5.04,-6.718 -12.72,-11.035 -22.56,-11.035 -11.52,0 -20.4,4.551 -20.4,15.117 z m -16.32,53.762 c 10.8,8.164 24.47,13.438 38.16,13.438 18.97,0 27.83,-6.719 27.83,-26.641 h -17.75 c -13.43,0 -29.28,-1.203 -41.52,-7.199 -12.25,-5.996 -21.11,-16.797 -21.11,-35.281 0,-23.516 21.34,-36.719 43.2,-36.719 14.63,0 30.7,7.683 38.14,21.355 h 0.49 c 0.24,-3.836 0.24,-11.992 1.45,-18.476 h 28.31 c -0.72,9.601 -1.21,18.242 -1.44,27.597 -0.23,9.121 -0.49,18.489 -0.49,30.969 v 15.84 c 0,36.473 -15.58,52.078 -53.28,52.078 -13.67,0 -30.47,-3.601 -42.95,-9.363 l 0.96,-27.598"
         style="fill:#3c211d;fill-opacity:1;fill-rule:nonzero;stroke:none"
         id="path102" /><path
         d="m 4039.37,177.297 c 0,16.562 5.76,39.363 26.64,39.363 20.64,0 28.8,-22.078 28.8,-39.363 0,-17.52 -6.97,-40.078 -28.31,-40.078 -21.14,0 -27.13,23.035 -27.13,40.078 z m 56.64,-62.16 h 31.21 v 180 h -32.17 v -70.801 h -0.49 c -9.59,11.758 -20.88,17.285 -36.95,17.285 -37.91,0 -51.84,-30.242 -51.84,-64.324 0,-33.84 13.93,-65.039 51.84,-65.039 15.11,0 28.32,4.805 37.93,16.797 h 0.47 v -13.918"
         style="fill:#3c211d;fill-opacity:1;fill-rule:nonzero;stroke:none"
         id="path104" /><path
         d="m 4183.14,150.898 c 0,18.957 21.34,21.36 35.74,21.36 h 13.92 c 0,-9.602 -1.44,-18.477 -6.71,-25.442 -5.04,-6.718 -12.72,-11.035 -22.57,-11.035 -11.52,0 -20.38,4.551 -20.38,15.117 z m -16.34,53.762 c 10.81,8.164 24.48,13.438 38.17,13.438 18.96,0 27.83,-6.719 27.83,-26.641 h -17.75 c -13.44,0 -29.28,-1.203 -41.53,-7.199 -12.24,-5.996 -21.11,-16.797 -21.11,-35.281 0,-23.516 21.35,-36.719 43.21,-36.719 14.63,0 30.7,7.683 38.14,21.355 h 0.49 c 0.23,-3.836 0.23,-11.992 1.44,-18.476 h 28.33 c -0.73,9.601 -1.22,18.242 -1.45,27.597 -0.23,9.121 -0.49,18.489 -0.49,30.969 v 15.84 c 0,36.473 -15.58,52.078 -53.28,52.078 -13.67,0 -30.47,-3.601 -42.95,-9.363 l 0.95,-27.598"
         style="fill:#3c211d;fill-opacity:1;fill-rule:nonzero;stroke:none"
         id="path106" /></g></g></svg>
