<?xml version="1.0" encoding="UTF-8" standalone="no"?>
<svg
   xmlns:dc="http://purl.org/dc/elements/1.1/"
   xmlns:cc="http://creativecommons.org/ns#"
   xmlns:rdf="http://www.w3.org/1999/02/22-rdf-syntax-ns#"
   xmlns:svg="http://www.w3.org/2000/svg"
   xmlns="http://www.w3.org/2000/svg"
   xmlns:sodipodi="http://sodipodi.sourceforge.net/DTD/sodipodi-0.dtd"
   xmlns:inkscape="http://www.inkscape.org/namespaces/inkscape"
   version="1.1"
   id="svg2"
   xml:space="preserve"
   width="676.56"
   height="164.85333"
   viewBox="0 0 676.56 164.85333"
   sodipodi:docname="SFUGalleries.Logo.Black.eps"><metadata
     id="metadata8"><rdf:RDF><cc:Work
         rdf:about=""><dc:format>image/svg+xml</dc:format><dc:type
           rdf:resource="http://purl.org/dc/dcmitype/StillImage" /></cc:Work></rdf:RDF></metadata><defs
     id="defs6" /><sodipodi:namedview
     pagecolor="#ffffff"
     bordercolor="#666666"
     borderopacity="1"
     objecttolerance="10"
     gridtolerance="10"
     guidetolerance="10"
     inkscape:pageopacity="0"
     inkscape:pageshadow="2"
     inkscape:window-width="640"
     inkscape:window-height="480"
     id="namedview4" /><g
     id="g10"
     inkscape:groupmode="layer"
     inkscape:label="ink_ext_XXXXXX"
     transform="matrix(1.3333333,0,0,-1.3333333,0,164.85333)"><g
       id="g12"
       transform="scale(0.1)"><path
         d="M 717.754,756.098 H 466.16 l -0.32,52.562 h 251.914 c 17.449,0 26.875,-13.547 26.875,-26.293 0,-12.734 -9.426,-26.269 -26.875,-26.269 z M 653.789,579.891 H 465.84 v 53.144 h 187.363 c 17.449,0 26.875,-13.547 26.875,-26.289 0,-13.203 -9.836,-26.855 -26.289,-26.855"
         style="fill:#85816A;fill-opacity:1;fill-rule:nonzero;stroke:none"
         id="path14" /><path
         d="m 1011.44,417.254 c -85.991,0 -155.952,69.961 -155.952,155.957 v 209.156 c 0,16.457 13.66,26.293 26.864,26.293 13.203,0 26.867,-9.836 26.867,-26.293 V 573.211 c 0,-56.699 45.859,-102.832 102.221,-102.832 55.75,0 102.84,47.09 102.84,102.832 v 209.156 c 0,16.457 13.65,26.293 26.85,26.293 12.65,0 26.29,-10.055 26.29,-26.293 V 573.211 c 0,-85.996 -69.97,-155.957 -155.98,-155.957"
         style="fill:#85816A;fill-opacity:1;fill-rule:nonzero;stroke:none"
         id="path16" /><path
         d="m 2317.63,427.715 c -10.19,0 -19.94,6.316 -24.22,15.723 L 2160.6,714.844 2027.91,443.594 c -4.13,-10.422 -14.98,-15.879 -23.73,-15.879 -14.82,0 -26.87,11.531 -26.87,25.711 0,3.379 0,6.562 1.88,11.262 l 157.29,327.25 c 4.08,9.808 14.57,16.722 25.88,16.722 10.37,0 19.08,-6.527 23.3,-17.461 l 156.68,-325.898 c 2.17,-5.293 2.17,-8.645 2.17,-11.875 0,-14.18 -12.05,-25.711 -26.88,-25.711"
         style="fill:#85816A;fill-opacity:1;fill-rule:nonzero;stroke:none"
         id="path18" /><path
         d="m 2509.69,542.242 h -53.17 v 250.699 c 0,14.989 11.56,26.289 26.88,26.289 12.75,0 26.29,-9.21 26.29,-26.289 z M 2677.03,427.715 H 2483.4 c -14.07,0 -26.88,12.527 -26.88,26.277 v 26.875 h 220.51 c 16.47,0 26.31,-13.672 26.31,-26.875 0,-12.637 -10.06,-26.277 -26.31,-26.277"
         style="fill:#85816A;fill-opacity:1;fill-rule:nonzero;stroke:none"
         id="path20" /><path
         d="m 4173.65,427.715 h -66.31 c -16.58,0 -26.85,13.64 -26.85,26.277 0,12.918 10.27,26.875 26.85,26.875 h 6.29 v 275.231 h -6.29 c -16.79,0 -26.85,13.351 -26.85,26.269 0,12.926 10.06,26.293 26.85,26.293 h 66.31 c 17.07,0 26.29,-13.547 26.29,-26.293 0,-12.734 -9.22,-26.269 -26.29,-26.269 h -6.87 V 480.867 h 6.87 c 16.45,0 26.29,-13.672 26.29,-26.875 0,-12.637 -10.06,-26.277 -26.29,-26.277"
         style="fill:#85816A;fill-opacity:1;fill-rule:nonzero;stroke:none"
         id="path22" /><path
         d="m 1701.76,417.82 c -108.87,0 -179.22,80.118 -179.22,204.121 0,72.188 48.65,186.719 179.22,186.719 59.05,0 106.36,-23.183 136.87,-67.055 5.11,-5.546 5.72,-11.542 5.72,-15.64 0,-14.496 -12.56,-26.289 -28.02,-26.289 -12.34,0 -19.31,8.976 -25.46,16.894 l -1.59,2.051 c -19.32,24.832 -47.93,36.891 -87.52,36.891 -82.27,0 -126.08,-77.574 -126.08,-133.571 0,-75.156 38.99,-150.976 126.08,-150.976 54.99,0 92.58,26.582 111.91,79.062 h -57.14 c -17.82,0 -27.43,13.848 -27.43,26.856 0,13.215 9.82,26.875 26.27,26.875 h 92.11 c 15.32,0 26.87,-11.555 26.87,-26.875 l -0.13,-1.641 -2.31,-13.867 C 1849.72,468.563 1789.33,417.82 1701.76,417.82"
         style="fill:#85816A;fill-opacity:1;fill-rule:nonzero;stroke:none"
         id="path24" /><path
         d="m 2870.82,542.242 h -53.15 v 250.699 c 0,14.989 11.57,26.289 26.88,26.289 12.73,0 26.27,-9.21 26.27,-26.289 z M 3038.2,427.715 h -193.65 c -14.06,0 -26.88,12.527 -26.88,26.277 v 26.875 h 220.53 c 16.45,0 26.27,-13.672 26.27,-26.875 0,-12.637 -10.04,-26.277 -26.27,-26.277"
         style="fill:#85816A;fill-opacity:1;fill-rule:nonzero;stroke:none"
         id="path26" /><path
         d="m 3473.91,756.098 h -251.45 v 52.562 h 251.45 c 17.44,0 26.85,-13.547 26.85,-26.293 0,-12.734 -9.41,-26.269 -26.85,-26.269 z m -63.99,-165.465 h -187.46 v 53.152 h 186.89 c 17.45,0 26.86,-13.531 26.86,-26.277 0,-13.203 -9.82,-26.875 -26.29,-26.875 z m 63.99,-162.918 h -251.45 v 53.152 h 251.45 c 16.81,0 26.85,-13.672 26.85,-26.875 0,-12.742 -9.41,-26.277 -26.85,-26.277"
         style="fill:#85816A;fill-opacity:1;fill-rule:nonzero;stroke:none"
         id="path28" /><path
         d="m 4626.21,756.098 h -251.45 v 52.562 h 251.45 c 17.44,0 26.87,-13.547 26.87,-26.293 0,-12.734 -9.43,-26.269 -26.87,-26.269 z m -63.96,-165.465 h -187.49 v 53.152 h 186.9 c 17.46,0 26.87,-13.531 26.87,-26.277 0,-13.203 -9.84,-26.875 -26.28,-26.875 z m 63.96,-162.918 h -251.45 v 53.152 h 251.45 c 16.82,0 26.87,-13.672 26.87,-26.875 0,-12.742 -9.43,-26.277 -26.87,-26.277"
         style="fill:#85816A;fill-opacity:1;fill-rule:nonzero;stroke:none"
         id="path30" /><path
         d="m 3905.9,427.129 c -8.4,0 -16.13,4.375 -20.7,11.695 l -104.05,146.535 v 46.329 h 24.12 c 44.16,0 74.93,31.718 74.93,60.187 0,33.613 -41.2,64.223 -86.45,64.223 h -139.2 v 52.562 h 139.98 c 90.16,0 138.81,-60.172 138.81,-116.785 0,-50.477 -27.89,-85.996 -85.18,-108.293 l 79.87,-113.359 c 3.75,-4.453 5.89,-10.137 5.89,-16.231 0,-14.316 -13.08,-26.863 -28.02,-26.863"
         style="fill:#85816A;fill-opacity:1;fill-rule:nonzero;stroke:none"
         id="path32" /><path
         d="m 2317.63,855.438 c -10.21,0 -19.96,6.332 -24.24,15.753 L 2160.6,1142.57 2027.89,871.336 c -4.1,-10.438 -14.95,-15.898 -23.72,-15.898 -14.82,0 -26.87,11.527 -26.87,25.695 0,3.387 0,6.586 1.9,11.297 l 157.28,327.23 c 4.06,9.8 14.57,16.72 25.88,16.72 10.37,0 19.08,-6.53 23.28,-17.45 l 156.7,-325.899 c 2.15,-5.328 2.15,-8.519 2.15,-11.898 0,-14.168 -12.05,-25.695 -26.86,-25.695"
         style="fill:#85816A;fill-opacity:1;fill-rule:nonzero;stroke:none"
         id="path34" /><path
         d="m 2317.63,0 c -10.21,0 -19.96,6.33984 -24.24,15.75 L 2160.6,287.117 2027.89,15.8984 C 2023.79,5.46094 2012.94,0 2004.17,0 c -14.82,0 -26.87,11.5195 -26.87,25.6914 0,3.2383 0,6.5977 1.9,11.3086 l 157.28,327.227 c 4.06,9.804 14.55,16.718 25.88,16.718 10.37,0 19.06,-6.523 23.28,-17.461 l 156.7,-325.8942 c 2.15,-5.3203 2.15,-8.5195 2.15,-11.8984 C 2344.49,11.5195 2332.44,0 2317.63,0"
         style="fill:#85816A;fill-opacity:1;fill-rule:nonzero;stroke:none"
         id="path36" /><path
         d="M 269.492,637.703 C 251.328,654.008 226.699,668.422 208.895,678 l -22.372,-45.863 c 18.114,-10.684 40.547,-24.961 53.379,-40.821 15.536,-19.226 20.047,-37.187 20.039,-50.671 0,-57.59 -57.48,-69.68 -105.722,-69.68 -36.914,0 -73.4182,11.914 -102.676,33.43 -3.2617,2.488 -5.5664,4.402 -7.3438,5.886 -5.7031,4.746 -9.0625,7.227 -17.3242,7.227 C 12.5586,517.508 0,504.949 0,490.633 0,483.418 2.59766,477.469 8.16406,471.922 45.3516,434.754 109.941,417.82 154.219,417.82 c 98.008,0 158.875,47.063 158.875,122.825 0,45.742 -19.461,75.378 -43.602,97.058"
         style="fill:#85816A;fill-opacity:1;fill-rule:nonzero;stroke:none"
         id="path38" /><path
         d="m 295.742,749.805 c -27.597,38.64 -88.75,58.855 -134.902,58.855 -90.1095,0 -146.0861,-42.828 -146.0861,-111.765 0,-43.672 22.9414,-75.95 51.9727,-99.133 21.0937,-16.856 55.2654,-35.567 79.7464,-47.969 l 22.382,46.066 c -26.843,15.391 -66.519,38.289 -81.5816,53.504 -12.1289,12.242 -19.3828,28.235 -19.3828,47.532 0,51 58.2304,58.617 92.9494,58.617 35.058,0 67.031,-11.86 87.715,-32.543 2,-2.008 3.582,-3.692 4.902,-5.102 5.691,-6.047 9.453,-10.047 20.195,-10.047 15.137,0 27.442,11.793 27.442,26.285 0,6.793 -2.754,11.813 -5.352,15.7"
         style="fill:#85816A;fill-opacity:1;fill-rule:nonzero;stroke:none"
         id="path40" /><path
         d="m 5030.62,637.703 c -18.16,16.305 -42.79,30.719 -60.58,40.297 l -22.38,-45.863 c 18.12,-10.684 40.54,-24.961 53.37,-40.821 15.55,-19.226 20.06,-37.187 20.04,-50.671 0,-57.59 -57.48,-69.68 -105.72,-69.68 -36.91,0 -73.42,11.914 -102.68,33.43 -3.26,2.488 -5.56,4.402 -7.34,5.886 -5.7,4.746 -9.06,7.227 -17.32,7.227 -14.32,0 -26.88,-12.559 -26.88,-26.875 0,-7.215 2.6,-13.164 8.17,-18.711 37.18,-37.168 101.77,-54.102 146.05,-54.102 98.01,0 158.89,47.063 158.89,122.825 0,45.742 -19.48,75.378 -43.62,97.058"
         style="fill:#85816A;fill-opacity:1;fill-rule:nonzero;stroke:none"
         id="path42" /><path
         d="m 5056.87,749.805 c -27.59,38.64 -88.75,58.855 -134.9,58.855 -90.1,0 -146.07,-42.828 -146.07,-111.765 0,-43.672 22.93,-75.95 51.97,-99.133 21.09,-16.856 55.25,-35.567 79.75,-47.969 l 22.38,46.066 c -26.86,15.391 -66.52,38.289 -81.58,53.504 -12.13,12.242 -19.4,28.235 -19.4,47.532 0,51 58.24,58.617 92.95,58.617 35.06,0 67.03,-11.86 87.72,-32.543 2.01,-2.008 3.59,-3.692 4.9,-5.102 5.7,-6.047 9.45,-10.047 20.19,-10.047 15.14,0 27.45,11.793 27.45,26.285 0,6.793 -2.76,11.813 -5.36,15.7"
         style="fill:#85816A;fill-opacity:1;fill-rule:nonzero;stroke:none"
         id="path44" /></g></g></svg>
